<?xml version="1.0" encoding="utf-8"?>
<!-- Generator: Adobe Illustrator 16.0.4, SVG Export Plug-In . SVG Version: 6.00 Build 0)  -->
<!DOCTYPE svg PUBLIC "-//W3C//DTD SVG 1.1//EN" "http://www.w3.org/Graphics/SVG/1.1/DTD/svg11.dtd">
<svg version="1.1" id="Layer_1" xmlns="http://www.w3.org/2000/svg" xmlns:xlink="http://www.w3.org/1999/xlink" x="0px" y="0px"
	 width="1100px" height="50px" viewBox="0 0 1100 50" enable-background="new 0 0 1100 50" xml:space="preserve">
<rect fill="#FFFFFF" width="1100" height="50"/>
<g>
	<path fill="#2169B3" d="M172.473,14.608h-0.297c-0.173-1.323-0.751-2.483-1.735-3.479c-0.983-0.996-2.279-1.494-3.887-1.494
		c-1.052,0-1.985,0.248-2.802,0.742c-0.816,0.495-1.447,1.169-1.893,2.022c-0.446,0.853-0.668,1.831-0.668,2.932
		c0,0.854,0.133,1.611,0.399,2.273c0.266,0.662,0.659,1.247,1.178,1.753c0.52,0.507,1.132,0.98,1.837,1.419s1.657,0.993,2.857,1.661
		c2.004,1.101,3.562,2.199,4.676,3.293c1.113,1.095,1.67,2.595,1.67,4.5c0,1.162-0.3,2.285-0.9,3.367
		c-0.6,1.082-1.506,1.971-2.718,2.662c-1.212,0.692-2.715,1.039-4.509,1.039c-1.126,0-2.122-0.119-2.987-0.361
		c-0.866-0.24-1.744-0.578-2.635-1.012c-0.371-0.123-0.625-0.186-0.761-0.186c-0.26,0-0.43,0.093-0.51,0.277
		c-0.081,0.187-0.189,0.588-0.325,1.207h-0.315V30.38h0.315c0.445,2.004,1.311,3.521,2.598,4.546c1.286,1.027,2.851,1.54,4.694,1.54
		c1.385,0,2.496-0.26,3.331-0.778c0.835-0.52,1.413-1.15,1.735-1.894c0.321-0.742,0.482-1.483,0.482-2.228
		c0-1.532-0.467-2.785-1.401-3.756c-0.934-0.972-2.354-1.965-4.258-2.979c-1.312-0.717-2.282-1.274-2.913-1.67
		s-1.271-0.909-1.92-1.54s-1.166-1.376-1.549-2.236c-0.384-0.859-0.575-1.846-0.575-2.959c0-1.286,0.34-2.517,1.021-3.692
		c0.68-1.175,1.645-2.118,2.895-2.83c1.249-0.711,2.666-1.067,4.249-1.067c1.2,0,2.431,0.204,3.692,0.612
		c0.198,0.099,0.464,0.148,0.798,0.148c0.408,0,0.687-0.278,0.835-0.835h0.297L172.473,14.608L172.473,14.608z"/>
	<path fill="#2169B3" d="M214.313,36.393h0.371c0.668,0,1.259-0.264,1.771-0.789c0.514-0.524,0.771-1.265,0.771-2.218V12.753
		c0-1.138-0.288-1.93-0.862-2.375c-0.576-0.445-1.26-0.68-2.051-0.705V9.357h8.739v0.315c-0.768,0.025-1.447,0.254-2.041,0.687
		c-0.594,0.433-0.891,1.231-0.891,2.394v19.946c0,1.188,0.297,2.011,0.891,2.468c0.594,0.458,1.564,0.687,2.913,0.687h2.356
		c1.026,0,1.847-0.123,2.458-0.371c0.613-0.246,1.098-0.623,1.457-1.131c0.358-0.508,0.724-1.226,1.095-2.152h0.315l-1.039,4.49
		h-16.254L214.313,36.393L214.313,36.393z"/>
	<path fill="#2169B3" d="M245.727,9.023l8.183,23.417c0.433,1.213,0.841,2.091,1.225,2.635c0.383,0.545,0.752,0.888,1.104,1.029
		c0.354,0.143,0.801,0.237,1.346,0.287v0.297h-8.925v-0.297c0.915,0,1.62-0.086,2.115-0.26c0.494-0.173,0.742-0.643,0.742-1.41
		c0-0.42-0.118-0.982-0.353-1.688c-0.05-0.1-0.074-0.174-0.074-0.223l-2.431-7.256h-9.463l-2.171,6.717
		c-0.297,0.916-0.445,1.651-0.445,2.209c0,0.768,0.191,1.276,0.575,1.53c0.383,0.255,0.928,0.38,1.633,0.38v0.297h-6.42v-0.297
		c0.915-0.086,1.648-0.436,2.198-1.048c0.551-0.612,1.03-1.543,1.438-2.793l7.719-23.527H245.727z M239.511,24.572h8.702
		l-4.453-12.97h-0.074L239.511,24.572z"/>
	<path fill="#2169B3" d="M259.718,9.747h-0.371v-0.39h9.463c1.521,0,2.811,0.235,3.869,0.705c1.057,0.47,1.88,1.067,2.467,1.791
		c0.588,0.724,1.009,1.488,1.262,2.292c0.254,0.804,0.381,1.596,0.381,2.375c0,0.99-0.207,1.939-0.621,2.848
		c-0.415,0.909-1.052,1.692-1.912,2.347c-0.859,0.656-1.933,1.101-3.219,1.336v0.074c1.633,0.792,3.142,2.363,4.527,4.713
		l2.468,4.176c1.113,1.867,2.007,3.049,2.681,3.543c0.675,0.495,1.339,0.773,1.995,0.836v0.297h-4.973
		c-0.211-0.272-0.408-0.534-0.594-0.789c-0.186-0.254-0.384-0.521-0.594-0.808c-0.124-0.186-0.306-0.467-0.548-0.844
		c-0.24-0.377-0.387-0.591-0.436-0.642l-3.266-5.398c-0.656-1.102-1.326-1.994-2.014-2.682c-0.686-0.687-1.326-1.177-1.92-1.475
		c-0.594-0.297-1.129-0.482-1.605-0.557c-0.476-0.074-1.036-0.111-1.679-0.111v10.001c0,1.942,0.989,2.944,2.969,3.007v0.297h-8.702
		v-0.297c0.544-0.024,1.026-0.127,1.447-0.307c0.42-0.18,0.77-0.488,1.049-0.928c0.277-0.439,0.417-1.03,0.417-1.772v-20.67
		c0-1.088-0.267-1.855-0.798-2.301C260.93,9.97,260.349,9.747,259.718,9.747z M265.08,22.661h1.559c1.633,0,2.972-0.235,4.017-0.705
		c1.046-0.47,1.803-1.141,2.273-2.013c0.47-0.872,0.705-1.939,0.705-3.201c0-1.051-0.211-2.081-0.631-3.089
		c-0.421-1.008-1.135-1.855-2.143-2.542c-1.009-0.687-2.366-1.03-4.073-1.03c-0.693,0-1.262,0.056-1.707,0.167V22.661L265.08,22.661
		z"/>
	<path fill="#2169B3" d="M293.041,9.357v0.315c-0.816,0-1.51,0.229-2.078,0.687c-0.569,0.458-0.854,1.219-0.854,2.282v20.744
		c0,1.053,0.303,1.815,0.909,2.292c0.605,0.478,1.28,0.714,2.022,0.714v0.297h-8.665v-0.297c0.791,0,1.475-0.23,2.051-0.695
		c0.574-0.463,0.862-1.233,0.862-2.311V12.642c0-1.138-0.288-1.917-0.862-2.338c-0.576-0.42-1.26-0.631-2.051-0.631V9.357H293.041z"
		/>
	<path fill="#2169B3" d="M309.852,14.608h-0.297c-0.174-1.323-0.751-2.483-1.735-3.479c-0.982-0.996-2.279-1.494-3.887-1.494
		c-1.052,0-1.985,0.248-2.802,0.742c-0.816,0.495-1.447,1.169-1.893,2.022c-0.446,0.853-0.668,1.831-0.668,2.932
		c0,0.854,0.133,1.611,0.399,2.273c0.266,0.662,0.658,1.247,1.178,1.753c0.52,0.507,1.132,0.98,1.837,1.419s1.657,0.993,2.857,1.661
		c2.004,1.101,3.562,2.199,4.676,3.293c1.113,1.095,1.67,2.595,1.67,4.5c0,1.162-0.3,2.285-0.899,3.367
		c-0.601,1.082-1.507,1.971-2.719,2.662c-1.213,0.692-2.716,1.039-4.509,1.039c-1.126,0-2.122-0.119-2.987-0.361
		c-0.866-0.24-1.744-0.578-2.635-1.012c-0.371-0.123-0.625-0.186-0.761-0.186c-0.26,0-0.43,0.093-0.511,0.277
		c-0.08,0.187-0.188,0.588-0.324,1.207h-0.315V30.38h0.315c0.445,2.004,1.311,3.521,2.598,4.546c1.286,1.027,2.851,1.54,4.694,1.54
		c1.385,0,2.495-0.26,3.331-0.778c0.834-0.521,1.412-1.15,1.734-1.894c0.321-0.742,0.482-1.483,0.482-2.228
		c0-1.532-0.467-2.785-1.4-3.756c-0.935-0.972-2.354-1.965-4.259-2.979c-1.312-0.717-2.282-1.274-2.913-1.67
		c-0.631-0.396-1.271-0.909-1.92-1.54c-0.65-0.631-1.167-1.376-1.55-2.236c-0.384-0.859-0.575-1.846-0.575-2.959
		c0-1.286,0.34-2.517,1.021-3.692c0.68-1.175,1.645-2.118,2.895-2.83c1.249-0.711,2.665-1.067,4.249-1.067
		c1.199,0,2.431,0.204,3.692,0.612c0.197,0.099,0.464,0.148,0.798,0.148c0.408,0,0.688-0.278,0.835-0.835h0.297L309.852,14.608
		L309.852,14.608z"/>
</g>
<g>
	<g>
		<g>
			<path fill="#A5CF57" d="M186.325,14.307c0.638,0.567,0.694,1.544,0.126,2.181c-0.565,0.637-1.543,0.695-2.18,0.128
				c-0.639-0.566-0.695-1.543-0.128-2.182C184.711,13.798,185.688,13.739,186.325,14.307z"/>
			<path fill="#A5CF57" d="M183.288,12.135c0.478,0.425,0.521,1.158,0.095,1.636c-0.426,0.479-1.156,0.521-1.636,0.097
				c-0.478-0.427-0.521-1.159-0.097-1.638C182.076,11.752,182.809,11.709,183.288,12.135z"/>
			<path fill="#A5CF57" d="M182.095,23.56c0.724,0.042,1.276,0.665,1.233,1.389c-0.043,0.724-0.666,1.275-1.389,1.23
				c-0.725-0.041-1.276-0.662-1.234-1.385C180.748,24.068,181.369,23.516,182.095,23.56z"/>
			<path fill="#A5CF57" d="M178.633,23.683c0.543,0.033,0.959,0.499,0.927,1.043c-0.033,0.541-0.499,0.956-1.042,0.926
				c-0.544-0.035-0.958-0.502-0.926-1.043C177.625,24.066,178.092,23.651,178.633,23.683z"/>
			<path fill="#A5CF57" d="M184.295,32.061c0.506-0.35,1.201-0.227,1.555,0.279c0.352,0.506,0.229,1.201-0.277,1.555
				c-0.506,0.354-1.201,0.229-1.555-0.276C183.666,33.111,183.789,32.416,184.295,32.061z"/>
			<path fill="#A5CF57" d="M182.051,33.965c0.38-0.262,0.902-0.168,1.167,0.209c0.264,0.381,0.172,0.902-0.209,1.168
				c-0.38,0.264-0.901,0.17-1.167-0.209C181.578,34.754,181.672,34.23,182.051,33.965z"/>
			<path fill="#A5CF57" d="M191.959,12.207c0.498,0.907,0.168,2.047-0.737,2.548c-0.907,0.498-2.047,0.167-2.546-0.738
				c-0.5-0.907-0.169-2.047,0.737-2.548C190.319,10.972,191.459,11.301,191.959,12.207z"/>
			<path fill="#A5CF57" d="M184.457,18.832c0.941,0.343,1.428,1.385,1.086,2.326c-0.345,0.941-1.385,1.429-2.328,1.085
				c-0.941-0.342-1.426-1.383-1.084-2.326C182.475,18.977,183.516,18.491,184.457,18.832z"/>
			<path fill="#A5CF57" d="M183.421,27.553c0.833-0.238,1.704,0.244,1.942,1.076c0.238,0.834-0.244,1.703-1.078,1.941
				c-0.833,0.238-1.703-0.244-1.941-1.076C182.106,28.662,182.588,27.791,183.421,27.553z"/>
			<path fill="#A5CF57" d="M186.838,33.965c0.289-0.48,0.913-0.637,1.396-0.348c0.481,0.287,0.638,0.914,0.349,1.393
				c-0.289,0.482-0.914,0.639-1.395,0.352C186.706,35.072,186.551,34.447,186.838,33.965z"/>
			<path fill="#A5CF57" d="M195.338,7.856c-1.152,0-2.084,0.933-2.084,2.083s0.932,2.084,2.084,2.084
				c1.149,0,2.082-0.934,2.082-2.084S196.487,7.856,195.338,7.856z"/>
			<path fill="#A5CF57" d="M195.338,4.07c-0.71,0-1.285,0.575-1.285,1.284s0.575,1.284,1.285,1.284c0.709,0,1.282-0.575,1.282-1.284
				C196.62,4.646,196.047,4.07,195.338,4.07z"/>
			<path fill="#A5CF57" d="M204.35,14.307c-0.638,0.567-0.693,1.544-0.127,2.181c0.566,0.637,1.543,0.695,2.18,0.128
				c0.639-0.566,0.694-1.543,0.129-2.182C205.965,13.798,204.986,13.739,204.35,14.307z"/>
			<path fill="#A5CF57" d="M207.387,12.135c-0.478,0.425-0.521,1.158-0.096,1.636c0.426,0.479,1.16,0.521,1.637,0.097
				c0.478-0.427,0.52-1.159,0.096-1.638C208.598,11.752,207.865,11.709,207.387,12.135z"/>
			<path fill="#A5CF57" d="M208.58,23.56c-0.725,0.042-1.275,0.665-1.234,1.389c0.043,0.724,0.666,1.275,1.389,1.23
				c0.724-0.041,1.275-0.662,1.234-1.385C209.926,24.068,209.305,23.516,208.58,23.56z"/>
			<path fill="#A5CF57" d="M212.041,23.683c-0.543,0.033-0.958,0.499-0.926,1.043c0.033,0.541,0.498,0.956,1.042,0.926
				c0.543-0.035,0.957-0.502,0.925-1.043C213.051,24.066,212.583,23.651,212.041,23.683z"/>
			<path fill="#A5CF57" d="M206.379,32.061c-0.504-0.35-1.201-0.227-1.555,0.279c-0.352,0.506-0.227,1.201,0.277,1.555
				c0.507,0.354,1.203,0.229,1.555-0.276C207.008,33.111,206.885,32.416,206.379,32.061z"/>
			<path fill="#A5CF57" d="M208.623,33.965c-0.38-0.262-0.901-0.168-1.166,0.209c-0.264,0.381-0.17,0.902,0.209,1.168
				c0.379,0.264,0.9,0.17,1.166-0.209C209.096,34.754,209.002,34.23,208.623,33.965z"/>
			<path fill="#A5CF57" d="M198.716,12.207c-0.5,0.907-0.168,2.047,0.737,2.548c0.906,0.498,2.047,0.167,2.547-0.738
				c0.498-0.907,0.168-2.047-0.74-2.548C200.355,10.972,199.215,11.301,198.716,12.207z"/>
			<path fill="#A5CF57" d="M206.217,18.832c-0.941,0.343-1.426,1.385-1.084,2.326c0.342,0.941,1.383,1.429,2.326,1.085
				c0.941-0.342,1.426-1.383,1.085-2.326C208.201,18.977,207.158,18.491,206.217,18.832z"/>
			<path fill="#A5CF57" d="M207.254,27.553c-0.834-0.238-1.703,0.244-1.943,1.076c-0.238,0.834,0.246,1.703,1.08,1.941
				c0.832,0.238,1.7-0.244,1.941-1.076C208.568,28.662,208.088,27.791,207.254,27.553z"/>
			<path fill="#A5CF57" d="M203.836,33.965c-0.288-0.48-0.914-0.637-1.396-0.348c-0.481,0.287-0.638,0.914-0.347,1.393
				c0.287,0.482,0.912,0.639,1.393,0.352C203.967,35.072,204.123,34.447,203.836,33.965z"/>
			<path fill="#A5CF57" d="M195.336,13.422c0.002,0,0.002,0,0.002,0l0,0H195.336z"/>
			<path fill="#A5CF57" d="M206.338,25.008c-0.038-0.641-0.416-1.183-0.949-1.455l-0.013,0.013
				c-1.112-0.531-1.882-1.667-1.882-2.982c0-0.428,0.082-0.834,0.229-1.21l0.008,0.003c0.254-0.69,0.128-1.496-0.394-2.083
				c-0.507-0.57-1.261-0.792-1.959-0.648l0.005,0.001c-0.273,0.072-0.557,0.111-0.851,0.111c-1.37,0-2.548-0.836-3.048-2.026
				l0.005-0.001c-0.403-0.778-1.218-1.308-2.151-1.308c-0.937,0-1.75,0.53-2.154,1.308l0.006,0.001
				c-0.502,1.19-1.677,2.026-3.048,2.026c-0.292,0-0.579-0.039-0.849-0.111l0.004-0.001c-0.697-0.144-1.453,0.077-1.961,0.648
				c-0.522,0.587-0.646,1.393-0.393,2.083l0.008-0.003c0.146,0.376,0.229,0.782,0.229,1.21c0,1.315-0.768,2.451-1.881,2.982
				l-0.012-0.013c-0.535,0.272-0.913,0.814-0.951,1.455c-0.039,0.646,0.279,1.232,0.785,1.564l0,0
				c0.889,0.592,1.477,1.604,1.477,2.754c0,0.383-0.064,0.75-0.186,1.094l-0.002-0.012c-0.199,0.455-0.162,1.004,0.145,1.441
				c0.283,0.407,0.736,0.629,1.199,0.637v-0.002c0.946,0,1.699,0.797,1.706,1.774c0,0.056,0.003,0.035,0,0.086
				c-0.02,0.544,0.318,1.06,0.862,1.24c0.662,0.222,1.379-0.135,1.602-0.797c0.107-0.318,0.078-0.647-0.053-0.933l-0.026-0.022
				c-0.569-1.088-1.62-2.256-1.795-2.433c-1.637-1.602-2.28-3.354-2.28-5.545c0-4.182,3.387-7.573,7.568-7.587
				c4.18,0.014,7.565,3.406,7.565,7.587c0,2.189-0.644,3.943-2.279,5.545c-0.176,0.177-1.226,1.345-1.795,2.433l-0.028,0.022
				c-0.129,0.283-0.16,0.613-0.053,0.933c0.223,0.662,0.939,1.019,1.604,0.797c0.543-0.183,0.88-0.696,0.861-1.24
				c-0.003-0.051,0-0.03,0-0.086c0.008-0.979,0.76-1.774,1.706-1.774v0.002c0.463-0.008,0.917-0.229,1.201-0.637
				c0.307-0.438,0.343-0.986,0.144-1.441l-0.002,0.012c-0.119-0.344-0.186-0.711-0.186-1.094c0-1.15,0.586-2.162,1.477-2.754h0.002
				C206.059,26.24,206.377,25.654,206.338,25.008z"/>
		</g>
	</g>
	<g>
		<polygon fill="#A5CF57" points="197.071,37.176 196.582,37.176 196.582,37.676 197.071,37.613 		"/>
		<path fill="#A5CF57" d="M197.071,40.1v-0.238l1.683-0.227c0.134-0.018,0.229-0.143,0.21-0.275
			c-0.019-0.135-0.142-0.229-0.276-0.211l-4.289,0.56c-0.135,0.019-0.258-0.074-0.275-0.209s0.076-0.258,0.21-0.274l1.606-0.218
			V38.77l0.643-0.086v0.238l0.489-0.064v-0.239l1.683-0.228c0.134-0.018,0.229-0.143,0.21-0.274
			c-0.019-0.136-0.142-0.229-0.276-0.209l-4.289,0.559c-0.135,0.019-0.258-0.075-0.275-0.211c-0.018-0.133,0.076-0.258,0.21-0.274
			l1.606-0.22v-0.584l-3.738,0.003v1.104l-0.078,0.014c-0.164,0.021-0.278,0.172-0.257,0.336c0.022,0.162,0.172,0.277,0.335,0.256
			v0.637l-0.078,0.017c-0.164,0.022-0.278,0.174-0.257,0.336c0.022,0.162,0.172,0.279,0.335,0.256v0.64l-0.078,0.016
			c-0.164,0.021-0.278,0.172-0.257,0.336c0.022,0.162,0.172,0.277,0.335,0.254v0.002v0.609l0.789,0.768h1.241
			c0.015,0.34,0.48,0.611,1.052,0.611c0.572,0,1.036-0.271,1.053-0.611h1.309l0.785-0.76l-0.004-1.07l0.328-0.045
			c0.134-0.018,0.229-0.143,0.21-0.275c-0.019-0.135-0.142-0.229-0.276-0.209v-0.002l-4.289,0.562
			c-0.135,0.019-0.258-0.076-0.276-0.209c-0.018-0.138,0.077-0.258,0.211-0.276l1.606-0.218V40.02l0.643-0.086v0.237L197.071,40.1z
			 M193.439,38.1c0.141,0,0.253,0.113,0.253,0.252c0,0.14-0.112,0.252-0.253,0.252c-0.139,0-0.252-0.112-0.252-0.252
			C193.187,38.213,193.301,38.1,193.439,38.1z M193.439,41.094c-0.139,0-0.252-0.113-0.252-0.254c0-0.139,0.113-0.252,0.252-0.252
			c0.141,0,0.253,0.113,0.253,0.252C193.692,40.98,193.58,41.094,193.439,41.094z M193.449,39.848c-0.139,0-0.253-0.113-0.253-0.252
			s0.114-0.252,0.253-0.252c0.141,0,0.252,0.113,0.252,0.252S193.59,39.848,193.449,39.848z"/>
	</g>
	<path fill="#B9DA8A" d="M197.881,26.805c0,0,1.514-0.602,1.899-1.256c0.386-0.652,0.282-1.535,0.282-1.535
		s-0.787,0.053-1.719,0.752C197.411,25.465,197.881,26.805,197.881,26.805L197.881,26.805z M197.949,29.078
		c0,0,1.9-0.207,2.543-0.826c0.641-0.619,0.799-1.65,0.799-1.65s-0.907-0.188-2.18,0.314
		C197.837,27.416,197.949,29.078,197.949,29.078L197.949,29.078z M193.849,30.035c0,0-0.763-2.646-1.799-3.402
		c-1.036-0.758-2.538-0.73-2.538-0.73s-0.042,1.334,0.981,3.019C191.518,30.604,193.849,30.035,193.849,30.035L193.849,30.035z
		 M197.172,26.961c0,0,0.15-1.348-0.178-1.885c-0.33-0.538-1.017-0.808-1.017-0.808s-0.271,0.599-0.12,1.556
		C196.007,26.781,197.172,26.961,197.172,26.961L197.172,26.961z M194.222,27.166c0,0,0.297-2.661-0.354-3.726
		c-0.651-1.064-2.013-1.599-2.013-1.599s-0.531,1.185-0.236,3.078C191.914,26.812,194.222,27.166,194.222,27.166L194.222,27.166z
		 M197.564,27.348l-0.381-0.045c-0.109,0.723-0.694,2.062-1.285,3.15c-0.383-1.033-0.83-1.941-1.227-2.619l-0.676,0.125
		c0.645,1.902,0.675,6.695,0.252,8.633h2.381c0.31-1.486,0.145-3.082-0.233-4.555C197.471,30.521,197.638,28.469,197.564,27.348z"/>
</g>
<g>
	<g>
		<path fill="#2169B3" d="M321.983,17.722h-3.498V17.62h0.127c0.237,0,0.441-0.086,0.612-0.257c0.172-0.172,0.257-0.429,0.257-0.771
			V9.534c0-0.334-0.08-0.594-0.238-0.777c-0.159-0.185-0.374-0.276-0.645-0.276h-0.114V8.372h3.053c0.402,0,0.772,0.058,1.111,0.174
			c0.338,0.117,0.625,0.277,0.86,0.482c0.234,0.206,0.416,0.438,0.542,0.698c0.127,0.261,0.19,0.543,0.19,0.848
			c0,0.563-0.182,1.02-0.546,1.371c-0.364,0.351-0.853,0.609-1.466,0.774v0.025c0.279,0.03,0.548,0.074,0.806,0.133
			c0.258,0.059,0.491,0.142,0.698,0.248s0.402,0.243,0.584,0.413c0.165,0.152,0.305,0.319,0.419,0.501
			c0.114,0.182,0.201,0.38,0.26,0.594c0.059,0.213,0.089,0.433,0.089,0.657c0,0.487-0.126,0.906-0.378,1.257
			c-0.251,0.351-0.536,0.618-0.854,0.8C323.403,17.597,322.779,17.722,321.983,17.722z M320.447,12.663h0.609
			c0.5,0,0.855-0.051,1.066-0.152c0.135-0.068,0.276-0.161,0.422-0.279c0.146-0.119,0.285-0.305,0.419-0.559
			c0.133-0.254,0.2-0.561,0.2-0.92c0-0.279-0.044-0.545-0.133-0.797c-0.089-0.251-0.218-0.475-0.387-0.669
			c-0.169-0.194-0.37-0.347-0.603-0.457c-0.233-0.11-0.487-0.165-0.762-0.165c-0.241,0-0.519,0.046-0.832,0.14L320.447,12.663
			L320.447,12.663z M321.406,12.949h-0.958v3.371c0,0.224,0.022,0.412,0.067,0.562c0.044,0.15,0.166,0.28,0.365,0.39
			c0.199,0.11,0.506,0.165,0.92,0.165c0.859,0,1.471-0.286,1.834-0.857c0.25-0.394,0.375-0.836,0.375-1.327
			c0-0.355-0.062-0.677-0.188-0.965c-0.125-0.288-0.296-0.528-0.514-0.72c-0.218-0.193-0.492-0.344-0.822-0.454
			C322.155,13.004,321.795,12.949,321.406,12.949z"/>
		<path fill="#2169B3" d="M326.052,8.505h-0.127V8.372h3.237c0.521,0,0.962,0.081,1.323,0.241c0.362,0.161,0.644,0.365,0.845,0.613
			c0.201,0.247,0.345,0.509,0.432,0.784c0.086,0.275,0.13,0.546,0.13,0.812c0,0.338-0.071,0.664-0.213,0.974
			c-0.142,0.312-0.359,0.579-0.653,0.803s-0.662,0.376-1.102,0.457v0.025c0.559,0.271,1.075,0.808,1.549,1.612l0.844,1.428
			c0.381,0.639,0.687,1.043,0.917,1.212s0.458,0.265,0.682,0.286v0.102h-1.701c-0.072-0.093-0.14-0.183-0.203-0.27
			s-0.131-0.179-0.203-0.276c-0.042-0.063-0.105-0.16-0.187-0.289c-0.083-0.129-0.132-0.202-0.149-0.219l-1.117-1.847
			c-0.224-0.376-0.454-0.682-0.688-0.917c-0.235-0.234-0.454-0.403-0.657-0.504c-0.203-0.101-0.386-0.165-0.549-0.19
			s-0.354-0.038-0.575-0.038v3.421c0,0.665,0.338,1.007,1.016,1.028v0.102h-2.977V17.62c0.186-0.008,0.351-0.043,0.495-0.104
			c0.144-0.062,0.264-0.167,0.358-0.317c0.096-0.15,0.143-0.353,0.143-0.606V9.521c0-0.373-0.091-0.635-0.273-0.787
			S326.268,8.505,326.052,8.505z M327.887,12.923h0.533c0.559,0,1.017-0.081,1.375-0.241c0.357-0.161,0.617-0.391,0.777-0.688
			c0.161-0.299,0.241-0.664,0.241-1.095c0-0.36-0.072-0.712-0.216-1.057c-0.144-0.345-0.388-0.635-0.733-0.869
			c-0.345-0.235-0.809-0.353-1.393-0.353c-0.237,0-0.432,0.019-0.584,0.057L327.887,12.923L327.887,12.923z"/>
		<path fill="#2169B3" d="M337.453,8.372V8.48c-0.279,0-0.516,0.078-0.711,0.235c-0.195,0.157-0.292,0.417-0.292,0.781v7.097
			c0,0.36,0.104,0.621,0.311,0.784c0.208,0.163,0.438,0.244,0.692,0.244v0.102h-2.964v-0.102c0.271,0,0.505-0.079,0.701-0.238
			c0.197-0.158,0.295-0.422,0.295-0.79V9.496c0-0.389-0.098-0.656-0.295-0.8c-0.196-0.144-0.43-0.216-0.701-0.216V8.372H337.453z"/>
		<path fill="#2169B3" d="M348.079,8.372V8.48c-0.237,0.03-0.424,0.075-0.562,0.137c-0.137,0.061-0.244,0.182-0.32,0.361
			c-0.076,0.18-0.114,0.439-0.114,0.778v8.201h-0.063l-7.179-8.011v5.751c0,0.478,0.019,0.833,0.057,1.066s0.093,0.4,0.165,0.501
			c0.157,0.22,0.43,0.338,0.819,0.355v0.102h-2.342v-0.102c0.262-0.013,0.467-0.069,0.612-0.168c0.146-0.1,0.25-0.282,0.312-0.546
			c0.061-0.265,0.092-0.664,0.092-1.197v-6.1l-0.311-0.349c-0.275-0.313-0.495-0.511-0.66-0.593
			c-0.165-0.083-0.37-0.145-0.616-0.188V8.372h1.758l7.071,7.922v-6.037c0-0.453-0.018-0.792-0.054-1.016
			c-0.036-0.224-0.131-0.404-0.285-0.54c-0.155-0.135-0.397-0.209-0.727-0.222V8.372H348.079z"/>
		<path fill="#2169B3" d="M357.518,10.314h-0.102c-0.135-0.609-0.495-1.083-1.079-1.418c-0.584-0.337-1.25-0.505-2-0.505
			c-0.389,0-0.807,0.061-1.254,0.181c-0.446,0.121-0.881,0.34-1.304,0.657c-0.423,0.317-0.774,0.777-1.054,1.381
			c-0.279,0.603-0.419,1.361-0.419,2.275c0,1.456,0.339,2.62,1.019,3.491c0.679,0.872,1.77,1.308,3.272,1.308
			c0.592,0,1.028-0.04,1.308-0.121c0.28-0.081,0.458-0.19,0.537-0.33c0.078-0.14,0.117-0.328,0.117-0.565v-1.714
			c0-0.406-0.088-0.675-0.264-0.806c-0.175-0.131-0.439-0.218-0.79-0.26V13.78h3.041v0.108c-0.279,0.03-0.495,0.09-0.647,0.181
			c-0.152,0.091-0.254,0.208-0.305,0.353c-0.051,0.145-0.076,0.334-0.076,0.571v2.603c-0.931,0.25-1.892,0.375-2.882,0.375
			c-0.512,0-1.018-0.042-1.517-0.127c-0.499-0.085-1.02-0.273-1.562-0.565s-1.02-0.724-1.435-1.295
			c-0.622-0.859-0.933-1.83-0.933-2.914c0-0.63,0.118-1.244,0.352-1.841c0.235-0.597,0.574-1.131,1.016-1.603
			s0.983-0.844,1.622-1.117c0.639-0.272,1.348-0.409,2.126-0.409c0.3,0,0.595,0.02,0.882,0.061c0.288,0.04,0.717,0.122,1.289,0.244
			c0.224,0.051,0.385,0.076,0.482,0.076c0.208,0,0.36-0.104,0.457-0.311h0.102L357.518,10.314L357.518,10.314z"/>
		<path fill="#2169B3" d="M362.094,8.372V8.48c-0.279,0-0.516,0.078-0.711,0.235c-0.195,0.157-0.292,0.417-0.292,0.781v7.097
			c0,0.36,0.104,0.621,0.311,0.784c0.208,0.163,0.438,0.244,0.692,0.244v0.102h-2.964v-0.102c0.271,0,0.505-0.079,0.701-0.238
			c0.197-0.158,0.295-0.422,0.295-0.79V9.496c0-0.389-0.098-0.656-0.295-0.8c-0.196-0.144-0.43-0.216-0.701-0.216V8.372H362.094z"/>
		<path fill="#2169B3" d="M372.72,8.372V8.48c-0.237,0.03-0.424,0.075-0.562,0.137c-0.137,0.061-0.244,0.182-0.32,0.361
			c-0.076,0.18-0.114,0.439-0.114,0.778v8.201h-0.063l-7.179-8.011v5.751c0,0.478,0.019,0.833,0.057,1.066s0.093,0.4,0.165,0.501
			c0.157,0.22,0.43,0.338,0.819,0.355v0.102h-2.342v-0.102c0.262-0.013,0.467-0.069,0.612-0.168c0.146-0.1,0.25-0.282,0.312-0.546
			c0.061-0.265,0.092-0.664,0.092-1.197v-6.1l-0.311-0.349c-0.275-0.313-0.495-0.511-0.66-0.593
			c-0.165-0.083-0.37-0.145-0.616-0.188V8.372h1.758l7.071,7.922v-6.037c0-0.453-0.018-0.792-0.054-1.016
			c-0.036-0.224-0.131-0.404-0.285-0.54c-0.155-0.135-0.397-0.209-0.727-0.222V8.372H372.72z"/>
		<path fill="#2169B3" d="M382.159,10.314h-0.102c-0.135-0.609-0.495-1.083-1.079-1.418c-0.584-0.337-1.25-0.505-2-0.505
			c-0.389,0-0.807,0.061-1.254,0.181c-0.446,0.121-0.881,0.34-1.304,0.657s-0.774,0.777-1.054,1.381
			c-0.279,0.603-0.419,1.361-0.419,2.275c0,1.456,0.339,2.62,1.019,3.491c0.679,0.872,1.77,1.308,3.272,1.308
			c0.592,0,1.028-0.04,1.308-0.121c0.28-0.081,0.458-0.19,0.537-0.33c0.078-0.14,0.117-0.328,0.117-0.565v-1.714
			c0-0.406-0.088-0.675-0.264-0.806c-0.175-0.131-0.439-0.218-0.79-0.26V13.78h3.041v0.108c-0.279,0.03-0.495,0.09-0.647,0.181
			c-0.152,0.091-0.254,0.208-0.305,0.353c-0.051,0.145-0.076,0.334-0.076,0.571v2.603c-0.931,0.25-1.892,0.375-2.882,0.375
			c-0.512,0-1.018-0.042-1.517-0.127c-0.499-0.085-1.02-0.273-1.562-0.565s-1.02-0.724-1.435-1.295
			c-0.622-0.859-0.933-1.83-0.933-2.914c0-0.63,0.118-1.244,0.352-1.841c0.235-0.597,0.574-1.131,1.016-1.603
			c0.442-0.472,0.983-0.844,1.622-1.117c0.639-0.272,1.348-0.409,2.126-0.409c0.3,0,0.595,0.02,0.882,0.061
			c0.288,0.04,0.717,0.122,1.289,0.244c0.224,0.051,0.385,0.076,0.482,0.076c0.208,0,0.36-0.104,0.457-0.311h0.102L382.159,10.314
			L382.159,10.314z"/>
		<path fill="#2169B3" d="M388.12,8.48V8.372h3.065c0.513,0,0.964,0.07,1.355,0.209c0.391,0.139,0.718,0.33,0.978,0.571
			c0.261,0.241,0.455,0.513,0.584,0.815c0.129,0.303,0.194,0.621,0.194,0.956c0,0.326-0.061,0.64-0.182,0.943
			c-0.12,0.302-0.31,0.571-0.568,0.806c-0.258,0.235-0.596,0.422-1.016,0.562c-0.418,0.14-0.9,0.209-1.447,0.209
			c-0.173,0-0.508-0.025-1.002-0.076v3.225c0,0.665,0.338,1.007,1.016,1.028v0.102h-2.978V17.62
			c0.292-0.008,0.532-0.092,0.721-0.251c0.188-0.158,0.282-0.417,0.282-0.777V9.521c0-0.216-0.034-0.396-0.102-0.54
			s-0.147-0.247-0.238-0.308c-0.091-0.061-0.192-0.106-0.305-0.136c-0.113-0.03-0.189-0.049-0.231-0.057H388.12z M390.082,8.702
			v4.405c0.325,0.059,0.646,0.089,0.965,0.089c0.604,0,1.118-0.156,1.539-0.466c0.421-0.312,0.631-0.888,0.631-1.73
			c0-0.694-0.185-1.264-0.555-1.71c-0.37-0.447-0.933-0.67-1.686-0.67C390.685,8.62,390.387,8.647,390.082,8.702z"/>
		<path fill="#2169B3" d="M395.127,8.48V8.372h5.573v1.473h-0.089c0-0.787-0.524-1.181-1.574-1.181h-1.949v4.247h1.715
			c0.338,0,0.641-0.055,0.907-0.165c0.266-0.11,0.419-0.362,0.457-0.755h0.095v2.12h-0.095c-0.038-0.241-0.11-0.426-0.216-0.555
			c-0.105-0.129-0.211-0.215-0.314-0.257s-0.195-0.063-0.275-0.063c-0.152-0.025-0.312-0.038-0.477-0.038h-1.797v3.32
			c0,0.25,0.048,0.465,0.144,0.647c0.095,0.182,0.316,0.273,0.663,0.273h1.391c0.334,0,0.609-0.049,0.824-0.146
			c0.217-0.097,0.387-0.233,0.512-0.406c0.125-0.173,0.229-0.383,0.314-0.628h0.088l-0.323,1.466h-5.573v-0.102h0.127
			c0.199,0,0.394-0.081,0.584-0.241c0.19-0.16,0.285-0.423,0.285-0.787V9.546c0-0.288-0.064-0.538-0.193-0.749
			s-0.354-0.317-0.676-0.317H395.127z"/>
		<path fill="#2169B3" d="M411.854,13.057c0,0.876-0.218,1.69-0.651,2.444s-1.024,1.353-1.774,1.8
			c-0.748,0.446-1.578,0.669-2.488,0.669c-0.914,0-1.752-0.223-2.514-0.669c-0.762-0.447-1.361-1.049-1.799-1.806
			c-0.438-0.757-0.657-1.583-0.657-2.476c0-0.686,0.13-1.33,0.391-1.933c0.26-0.603,0.624-1.128,1.092-1.577
			c0.468-0.449,1.001-0.795,1.6-1.041c0.599-0.246,1.224-0.368,1.876-0.368c0.639,0,1.252,0.117,1.84,0.353
			c0.589,0.234,1.116,0.574,1.584,1.019c0.468,0.445,0.835,0.971,1.102,1.581C411.723,11.663,411.854,12.329,411.854,13.057z
			 M410.736,13.082c0-1.244-0.221-2.217-0.66-2.92c-0.44-0.703-0.948-1.173-1.523-1.413c-0.576-0.239-1.117-0.358-1.625-0.358
			c-0.395,0-0.803,0.064-1.226,0.193c-0.423,0.129-0.835,0.365-1.234,0.708c-0.4,0.343-0.729,0.825-0.987,1.447
			c-0.258,0.622-0.387,1.39-0.387,2.304c0,0.804,0.106,1.505,0.32,2.104s0.508,1.088,0.882,1.467
			c0.375,0.378,0.787,0.651,1.238,0.818c0.45,0.167,0.919,0.251,1.405,0.251c0.437,0,0.878-0.077,1.324-0.231
			c0.446-0.155,0.854-0.406,1.225-0.756c0.37-0.349,0.671-0.823,0.901-1.422C410.62,14.676,410.736,13.945,410.736,13.082z"/>
		<path fill="#2169B3" d="M413.04,8.48V8.372h3.065c0.513,0,0.964,0.07,1.355,0.209c0.391,0.139,0.718,0.33,0.978,0.571
			c0.261,0.241,0.455,0.513,0.584,0.815c0.129,0.303,0.194,0.621,0.194,0.956c0,0.326-0.061,0.64-0.182,0.943
			c-0.12,0.302-0.31,0.571-0.568,0.806c-0.258,0.235-0.596,0.422-1.016,0.562c-0.418,0.14-0.9,0.209-1.447,0.209
			c-0.173,0-0.508-0.025-1.002-0.076v3.225c0,0.665,0.338,1.007,1.016,1.028v0.102h-2.978V17.62
			c0.292-0.008,0.532-0.092,0.721-0.251c0.188-0.158,0.282-0.417,0.282-0.777V9.521c0-0.216-0.034-0.396-0.102-0.54
			s-0.147-0.247-0.238-0.308c-0.091-0.061-0.192-0.106-0.305-0.136c-0.113-0.03-0.189-0.049-0.231-0.057H413.04z M415.002,8.702
			v4.405c0.325,0.059,0.646,0.089,0.965,0.089c0.604,0,1.118-0.156,1.539-0.466c0.421-0.312,0.631-0.888,0.631-1.73
			c0-0.694-0.185-1.264-0.555-1.71c-0.37-0.447-0.933-0.67-1.686-0.67C415.604,8.62,415.307,8.647,415.002,8.702z"/>
		<path fill="#2169B3" d="M420.074,17.621h0.127c0.229,0,0.431-0.09,0.606-0.27c0.176-0.18,0.263-0.433,0.263-0.759V9.534
			c0-0.389-0.098-0.66-0.295-0.812c-0.196-0.152-0.431-0.233-0.701-0.241V8.372h2.99V8.48c-0.264,0.008-0.496,0.087-0.699,0.235
			s-0.306,0.421-0.306,0.819v6.824c0,0.406,0.103,0.688,0.306,0.844c0.203,0.156,0.536,0.235,0.997,0.235h0.806
			c0.352,0,0.632-0.042,0.842-0.127c0.209-0.084,0.375-0.214,0.498-0.387c0.123-0.173,0.248-0.419,0.375-0.736h0.107l-0.355,1.536
			h-5.561V17.621L420.074,17.621z"/>
		<path fill="#2169B3" d="M426.549,8.48V8.372h5.573v1.473h-0.089c0-0.787-0.524-1.181-1.574-1.181h-1.949v4.247h1.715
			c0.339,0,0.642-0.055,0.907-0.165c0.267-0.11,0.419-0.362,0.457-0.755h0.095v2.12h-0.095c-0.038-0.241-0.109-0.426-0.216-0.555
			c-0.105-0.129-0.211-0.215-0.314-0.257c-0.103-0.042-0.194-0.063-0.274-0.063c-0.152-0.025-0.312-0.038-0.478-0.038h-1.797v3.32
			c0,0.25,0.048,0.465,0.145,0.647c0.095,0.182,0.315,0.273,0.663,0.273h1.391c0.334,0,0.609-0.049,0.824-0.146
			c0.217-0.097,0.387-0.233,0.512-0.406c0.125-0.173,0.229-0.383,0.314-0.628h0.088l-0.323,1.466h-5.573v-0.102h0.127
			c0.199,0,0.395-0.081,0.584-0.241c0.19-0.16,0.285-0.423,0.285-0.787V9.546c0-0.288-0.063-0.538-0.192-0.749
			c-0.13-0.211-0.354-0.317-0.677-0.317H426.549z"/>
		<path fill="#2169B3" d="M441.782,8.258l2.8,8.011c0.148,0.415,0.288,0.715,0.419,0.901s0.257,0.304,0.378,0.352
			c0.12,0.049,0.273,0.082,0.46,0.099v0.102h-3.053v-0.102c0.312,0,0.554-0.03,0.723-0.089c0.17-0.059,0.254-0.22,0.254-0.482
			c0-0.144-0.04-0.336-0.12-0.578c-0.017-0.034-0.024-0.059-0.024-0.076l-0.831-2.482h-3.238l-0.742,2.298
			c-0.102,0.313-0.151,0.565-0.151,0.755c0,0.262,0.064,0.437,0.196,0.524c0.132,0.086,0.316,0.13,0.56,0.13v0.102h-2.197v-0.102
			c0.313-0.03,0.564-0.149,0.753-0.358c0.188-0.21,0.354-0.528,0.491-0.956l2.641-8.049H441.782z M439.656,13.577h2.978L441.11,9.14
			h-0.025L439.656,13.577z"/>
		<path fill="#2169B3" d="M456.148,8.372V8.48c-0.237,0.03-0.426,0.075-0.562,0.137c-0.138,0.061-0.244,0.182-0.32,0.361
			c-0.075,0.18-0.113,0.439-0.113,0.778v8.201h-0.063l-7.18-8.011v5.751c0,0.478,0.02,0.833,0.058,1.066s0.093,0.4,0.165,0.501
			c0.156,0.22,0.431,0.338,0.818,0.355v0.102h-2.342v-0.102c0.263-0.013,0.467-0.069,0.611-0.168c0.146-0.1,0.25-0.282,0.312-0.546
			c0.062-0.265,0.092-0.664,0.092-1.197v-6.1l-0.311-0.349c-0.275-0.313-0.496-0.511-0.66-0.593
			c-0.166-0.083-0.371-0.145-0.616-0.188V8.372h1.759l7.07,7.922v-6.037c0-0.453-0.019-0.792-0.054-1.016
			c-0.036-0.224-0.132-0.404-0.285-0.54c-0.154-0.136-0.397-0.209-0.729-0.222V8.372H456.148z"/>
		<path fill="#2169B3" d="M457.049,8.48V8.372h3.601c0.503,0,0.968,0.043,1.393,0.13c0.426,0.086,0.807,0.202,1.143,0.346
			c0.338,0.144,0.629,0.302,0.873,0.473c0.245,0.172,0.453,0.346,0.622,0.524c0.296,0.296,0.549,0.625,0.755,0.987
			c0.208,0.362,0.363,0.744,0.468,1.146c0.104,0.402,0.155,0.817,0.155,1.244c0,0.427-0.051,0.833-0.151,1.219
			c-0.102,0.386-0.248,0.742-0.438,1.07c-0.189,0.328-0.418,0.625-0.683,0.892c-0.266,0.267-0.572,0.508-0.924,0.724
			c-0.301,0.178-0.646,0.322-1.034,0.432s-0.916,0.165-1.581,0.165h-4.195v-0.102h0.127c0.292,0,0.511-0.11,0.654-0.33
			c0.144-0.22,0.215-0.453,0.215-0.698v-7.06c0-0.237-0.039-0.436-0.117-0.597s-0.183-0.277-0.313-0.349
			c-0.131-0.072-0.276-0.108-0.438-0.108H457.049z M459.01,8.816v7.408c0,0.364,0.06,0.632,0.175,0.803
			c0.116,0.172,0.299,0.283,0.543,0.333c0.245,0.05,0.605,0.076,1.079,0.076c0.678,0,1.248-0.067,1.715-0.2
			c0.466-0.134,0.915-0.431,1.353-0.892c0.321-0.343,0.579-0.762,0.773-1.257s0.293-1.094,0.293-1.796
			c0-0.554-0.079-1.104-0.235-1.647s-0.396-1.027-0.718-1.45c-0.359-0.478-0.821-0.853-1.388-1.124
			c-0.563-0.271-1.244-0.406-2.041-0.406C460.148,8.664,459.633,8.715,459.01,8.816z"/>
		<path fill="#2169B3" d="M481.202,8.372V8.48c-0.237,0.03-0.425,0.075-0.562,0.137c-0.138,0.061-0.243,0.182-0.319,0.361
			c-0.076,0.18-0.114,0.439-0.114,0.778v8.201h-0.063l-7.18-8.011v5.751c0,0.478,0.021,0.833,0.059,1.066
			c0.037,0.233,0.093,0.4,0.164,0.501c0.156,0.22,0.431,0.338,0.818,0.355v0.102h-2.342v-0.102c0.263-0.013,0.467-0.069,0.612-0.168
			c0.146-0.1,0.25-0.282,0.312-0.546c0.062-0.265,0.092-0.664,0.092-1.197v-6.1l-0.311-0.349c-0.275-0.313-0.496-0.511-0.66-0.593
			c-0.166-0.083-0.371-0.145-0.616-0.188V8.372h1.759l7.07,7.922v-6.037c0-0.453-0.018-0.792-0.054-1.016
			c-0.036-0.224-0.131-0.404-0.285-0.54c-0.154-0.136-0.397-0.209-0.728-0.222V8.372H481.202z"/>
		<path fill="#2169B3" d="M486.35,8.258l2.801,8.011c0.147,0.415,0.287,0.715,0.419,0.901c0.131,0.186,0.257,0.304,0.378,0.352
			c0.12,0.049,0.272,0.082,0.46,0.099v0.102h-3.054v-0.102c0.312,0,0.555-0.03,0.724-0.089c0.17-0.059,0.254-0.22,0.254-0.482
			c0-0.144-0.04-0.336-0.12-0.578c-0.017-0.034-0.025-0.059-0.025-0.076l-0.83-2.482h-3.238l-0.742,2.298
			c-0.102,0.313-0.152,0.565-0.152,0.755c0,0.262,0.065,0.437,0.197,0.524c0.131,0.086,0.316,0.13,0.559,0.13v0.102h-2.196v-0.102
			c0.312-0.03,0.563-0.149,0.753-0.358c0.188-0.21,0.353-0.528,0.491-0.956l2.641-8.049H486.35z M484.224,13.577h2.979l-1.523-4.437
			h-0.024L484.224,13.577z"/>
		<path fill="#2169B3" d="M498.036,10.194h-0.103c-0.047-0.609-0.225-1.004-0.532-1.184c-0.311-0.18-0.69-0.27-1.144-0.27h-1.859
			v7.852c0,0.665,0.339,1.007,1.016,1.028v0.102h-2.979V17.62c0.279-0.008,0.517-0.09,0.709-0.244
			c0.191-0.155,0.288-0.416,0.288-0.784V8.74h-1.859c-0.452,0-0.832,0.09-1.14,0.27c-0.307,0.18-0.485,0.574-0.536,1.184h-0.103
			V7.909h0.103c0.067,0.106,0.127,0.184,0.178,0.235c0.051,0.051,0.117,0.094,0.197,0.13c0.079,0.036,0.175,0.061,0.281,0.076
			c0.108,0.015,0.236,0.022,0.385,0.022h6.057c0.401,0,0.715-0.154,0.938-0.463h0.103V10.194L498.036,10.194z"/>
		<path fill="#2169B3" d="M507.957,17.722h-1.961v-1.549l-0.032-0.025c-0.271,0.63-0.676,1.092-1.216,1.384
			c-0.539,0.292-1.104,0.438-1.691,0.438c-0.664,0-1.262-0.159-1.793-0.476c-0.53-0.317-0.922-0.709-1.172-1.174
			c-0.178-0.33-0.289-0.674-0.336-1.032c-0.047-0.357-0.07-0.729-0.07-1.114V9.521c0-0.279-0.056-0.514-0.168-0.705
			c-0.111-0.191-0.38-0.303-0.803-0.336V8.372h2.939V8.48c-0.433,0.051-0.707,0.176-0.826,0.375
			c-0.118,0.199-0.178,0.421-0.178,0.667v4.577c0,0.931,0.096,1.619,0.285,2.063c0.203,0.474,0.509,0.844,0.914,1.111
			c0.406,0.267,0.867,0.4,1.385,0.4c0.216,0,0.472-0.038,0.768-0.114c0.297-0.076,0.574-0.203,0.832-0.381
			c0.774-0.529,1.162-1.377,1.162-2.545v-5.11c0-0.258-0.061-0.487-0.178-0.686c-0.119-0.199-0.398-0.317-0.839-0.355v-0.11h2.989
			V8.48c-0.432,0.021-0.709,0.142-0.831,0.362c-0.123,0.22-0.185,0.442-0.185,0.667v7.084c0,0.246,0.041,0.439,0.124,0.581
			c0.082,0.142,0.196,0.242,0.343,0.301s0.324,0.108,0.536,0.146L507.957,17.722L507.957,17.722z"/>
		<path fill="#2169B3" d="M508.979,8.505h-0.127V8.372h3.237c0.521,0,0.962,0.081,1.323,0.241c0.362,0.161,0.644,0.365,0.845,0.613
			c0.201,0.247,0.345,0.509,0.433,0.784c0.087,0.275,0.13,0.546,0.13,0.812c0,0.338-0.071,0.664-0.214,0.974
			c-0.142,0.312-0.358,0.579-0.652,0.803s-0.661,0.376-1.103,0.457v0.025c0.56,0.271,1.075,0.808,1.55,1.612l0.844,1.428
			c0.381,0.639,0.688,1.043,0.918,1.212c0.229,0.169,0.458,0.265,0.682,0.286v0.102h-1.701c-0.07-0.093-0.139-0.183-0.202-0.27
			c-0.062-0.087-0.132-0.179-0.203-0.276c-0.042-0.063-0.104-0.16-0.188-0.289c-0.083-0.129-0.133-0.202-0.148-0.219l-1.117-1.847
			c-0.226-0.376-0.454-0.682-0.688-0.917c-0.234-0.234-0.454-0.403-0.656-0.504c-0.203-0.101-0.387-0.165-0.55-0.19
			s-0.354-0.038-0.573-0.038v3.421c0,0.665,0.338,1.007,1.016,1.028v0.102h-2.979V17.62c0.188-0.008,0.353-0.043,0.495-0.104
			c0.145-0.062,0.265-0.167,0.358-0.317c0.096-0.15,0.144-0.353,0.144-0.606V9.521c0-0.373-0.092-0.635-0.272-0.787
			C509.396,8.582,509.195,8.505,508.979,8.505z M510.814,12.923h0.532c0.56,0,1.018-0.081,1.374-0.241
			c0.357-0.16,0.616-0.391,0.777-0.688c0.161-0.299,0.241-0.664,0.241-1.095c0-0.36-0.072-0.712-0.216-1.057
			c-0.145-0.345-0.39-0.635-0.733-0.869c-0.345-0.235-0.809-0.353-1.393-0.353c-0.237,0-0.433,0.019-0.584,0.057L510.814,12.923
			L510.814,12.923z"/>
		<path fill="#2169B3" d="M517.39,8.48V8.372h5.573v1.473h-0.089c0-0.787-0.524-1.181-1.574-1.181h-1.948v4.247h1.715
			c0.338,0,0.641-0.055,0.906-0.165c0.267-0.11,0.42-0.362,0.457-0.755h0.096v2.12h-0.096c-0.038-0.241-0.109-0.426-0.216-0.555
			c-0.104-0.129-0.211-0.215-0.313-0.257c-0.104-0.042-0.195-0.063-0.275-0.063c-0.152-0.025-0.312-0.038-0.477-0.038h-1.798v3.32
			c0,0.25,0.049,0.465,0.145,0.647c0.095,0.182,0.315,0.273,0.663,0.273h1.391c0.334,0,0.609-0.049,0.824-0.146
			c0.217-0.097,0.387-0.233,0.512-0.406c0.125-0.173,0.229-0.383,0.314-0.628h0.088l-0.323,1.466h-5.573v-0.102h0.127
			c0.199,0,0.395-0.081,0.584-0.241c0.19-0.16,0.285-0.423,0.285-0.787V9.546c0-0.288-0.063-0.538-0.192-0.749
			s-0.354-0.317-0.677-0.317H517.39z"/>
		<path fill="#2169B3" d="M536.344,10.194h-0.102c-0.047-0.609-0.226-1.004-0.533-1.184c-0.31-0.18-0.69-0.27-1.143-0.27h-1.86
			v7.852c0,0.665,0.339,1.007,1.016,1.028v0.102h-2.978V17.62c0.279-0.008,0.516-0.09,0.708-0.244
			c0.191-0.155,0.289-0.416,0.289-0.784V8.74h-1.86c-0.452,0-0.832,0.09-1.139,0.27c-0.308,0.18-0.486,0.574-0.537,1.184h-0.102
			V7.909h0.102c0.068,0.106,0.127,0.184,0.178,0.235c0.051,0.051,0.117,0.094,0.197,0.13s0.175,0.061,0.282,0.076
			s0.235,0.022,0.384,0.022h6.057c0.401,0,0.715-0.154,0.939-0.463h0.102V10.194z"/>
		<path fill="#2169B3" d="M546.799,13.057c0,0.876-0.218,1.69-0.65,2.444c-0.434,0.754-1.024,1.353-1.774,1.8
			c-0.748,0.446-1.578,0.669-2.488,0.669c-0.914,0-1.752-0.223-2.514-0.669c-0.762-0.447-1.361-1.049-1.799-1.806
			c-0.438-0.757-0.657-1.583-0.657-2.476c0-0.686,0.13-1.33,0.391-1.933s0.624-1.128,1.093-1.577c0.468-0.449,1.001-0.795,1.6-1.041
			c0.599-0.246,1.224-0.368,1.876-0.368c0.639,0,1.252,0.117,1.84,0.353c0.589,0.234,1.116,0.574,1.584,1.019
			c0.468,0.445,0.835,0.971,1.103,1.581C546.668,11.663,546.799,12.329,546.799,13.057z M545.682,13.082
			c0-1.244-0.221-2.217-0.659-2.92c-0.44-0.703-0.948-1.173-1.523-1.413c-0.576-0.239-1.117-0.358-1.625-0.358
			c-0.396,0-0.803,0.064-1.226,0.193c-0.424,0.129-0.836,0.365-1.234,0.708c-0.4,0.343-0.729,0.825-0.987,1.447
			c-0.258,0.622-0.387,1.39-0.387,2.304c0,0.804,0.106,1.505,0.32,2.104s0.508,1.088,0.882,1.467
			c0.375,0.378,0.787,0.651,1.238,0.818c0.449,0.167,0.919,0.251,1.404,0.251c0.438,0,0.878-0.077,1.324-0.231
			c0.446-0.155,0.854-0.406,1.225-0.756c0.37-0.349,0.672-0.823,0.901-1.422C545.565,14.676,545.682,13.945,545.682,13.082z"/>
		<path fill="#2169B3" d="M556.51,10.314h-0.102c-0.135-0.609-0.494-1.083-1.078-1.418c-0.584-0.337-1.251-0.505-2-0.505
			c-0.39,0-0.808,0.061-1.254,0.181c-0.446,0.121-0.881,0.34-1.305,0.657s-0.773,0.777-1.054,1.381
			c-0.278,0.603-0.42,1.361-0.42,2.275c0,1.456,0.34,2.62,1.021,3.491c0.679,0.872,1.77,1.308,3.271,1.308
			c0.593,0,1.029-0.04,1.31-0.121c0.279-0.081,0.458-0.19,0.535-0.33c0.078-0.14,0.117-0.328,0.117-0.565v-1.714
			c0-0.406-0.088-0.675-0.264-0.806s-0.438-0.218-0.79-0.26V13.78h3.041v0.108c-0.279,0.03-0.496,0.09-0.647,0.181
			c-0.152,0.091-0.255,0.208-0.306,0.353s-0.076,0.334-0.076,0.571v2.603c-0.931,0.25-1.891,0.375-2.881,0.375
			c-0.513,0-1.019-0.042-1.518-0.127c-0.499-0.085-1.021-0.273-1.562-0.565s-1.02-0.724-1.435-1.295
			c-0.622-0.859-0.935-1.83-0.935-2.914c0-0.63,0.118-1.244,0.354-1.841s0.573-1.131,1.016-1.603s0.983-0.844,1.622-1.117
			c0.64-0.272,1.349-0.409,2.127-0.409c0.301,0,0.595,0.02,0.883,0.061c0.287,0.04,0.718,0.122,1.287,0.244
			c0.226,0.051,0.387,0.076,0.482,0.076c0.208,0,0.36-0.104,0.457-0.311h0.102v2.144H556.51z"/>
		<path fill="#2169B3" d="M558.098,8.48V8.372h5.573v1.473h-0.089c0-0.787-0.524-1.181-1.574-1.181h-1.949v4.247h1.716
			c0.338,0,0.641-0.055,0.906-0.165c0.267-0.11,0.419-0.362,0.457-0.755h0.096v2.12h-0.096c-0.038-0.241-0.109-0.426-0.216-0.555
			c-0.104-0.129-0.211-0.215-0.313-0.257c-0.104-0.042-0.195-0.063-0.275-0.063c-0.152-0.025-0.312-0.038-0.477-0.038h-1.798v3.32
			c0,0.25,0.049,0.465,0.145,0.647c0.095,0.182,0.315,0.273,0.663,0.273h1.391c0.334,0,0.609-0.049,0.824-0.146
			c0.217-0.097,0.387-0.233,0.512-0.406c0.125-0.173,0.229-0.383,0.314-0.628h0.088l-0.323,1.466h-5.573v-0.102h0.128
			c0.198,0,0.394-0.081,0.584-0.241c0.189-0.16,0.284-0.423,0.284-0.787V9.546c0-0.288-0.063-0.538-0.192-0.749
			s-0.354-0.317-0.677-0.317H558.098z"/>
		<path fill="#2169B3" d="M572.717,10.194h-0.102c-0.047-0.609-0.226-1.004-0.533-1.184c-0.311-0.18-0.69-0.27-1.143-0.27h-1.86
			v7.852c0,0.665,0.339,1.007,1.016,1.028v0.102h-2.978V17.62c0.278-0.008,0.516-0.09,0.708-0.244
			c0.191-0.155,0.289-0.416,0.289-0.784V8.74h-1.86c-0.452,0-0.832,0.09-1.139,0.27c-0.308,0.18-0.486,0.574-0.537,1.184h-0.103
			V7.909h0.103c0.068,0.106,0.127,0.184,0.178,0.235c0.051,0.051,0.117,0.094,0.197,0.13s0.175,0.061,0.282,0.076
			s0.235,0.022,0.384,0.022h6.057c0.401,0,0.715-0.154,0.939-0.463h0.102V10.194z"/>
		<path fill="#2169B3" d="M580.701,12.65V9.521c0-0.305-0.083-0.554-0.248-0.749s-0.421-0.292-0.769-0.292V8.372h2.978V8.48
			c-0.347,0-0.602,0.096-0.762,0.289c-0.161,0.192-0.241,0.443-0.241,0.752v7.071c0,0.686,0.334,1.028,1.003,1.028v0.102h-2.978
			V17.62c0.316,0,0.565-0.086,0.745-0.257c0.181-0.172,0.271-0.424,0.271-0.759v-3.669h-5.357v3.656
			c0,0.326,0.092,0.579,0.275,0.759c0.185,0.18,0.431,0.27,0.74,0.27v0.102h-2.979V17.62c0.321,0,0.568-0.09,0.739-0.27
			c0.172-0.18,0.258-0.433,0.258-0.759v-7.07c0-0.694-0.333-1.041-0.997-1.041V8.372h2.979V8.48c-0.353,0-0.608,0.096-0.771,0.289
			c-0.163,0.192-0.244,0.443-0.244,0.752v3.129H580.701z"/>
		<path fill="#2169B3" d="M583.545,8.48V8.372h5.573v1.473h-0.089c0-0.787-0.524-1.181-1.574-1.181h-1.949v4.247h1.715
			c0.338,0,0.642-0.055,0.907-0.165c0.267-0.11,0.419-0.362,0.457-0.755h0.095v2.12h-0.095c-0.038-0.241-0.11-0.426-0.216-0.555
			c-0.105-0.129-0.211-0.215-0.314-0.257c-0.103-0.042-0.194-0.063-0.274-0.063c-0.152-0.025-0.312-0.038-0.478-0.038h-1.797v3.32
			c0,0.25,0.048,0.465,0.145,0.647c0.095,0.182,0.315,0.273,0.662,0.273h1.392c0.334,0,0.608-0.049,0.824-0.146
			c0.217-0.097,0.387-0.233,0.512-0.406c0.125-0.173,0.229-0.383,0.313-0.628h0.089l-0.323,1.466h-5.573v-0.102h0.127
			c0.199,0,0.395-0.081,0.584-0.241c0.19-0.16,0.285-0.423,0.285-0.787V9.546c0-0.288-0.064-0.538-0.193-0.749
			s-0.354-0.317-0.676-0.317H583.545z"/>
		<path fill="#2169B3" d="M590.286,8.505h-0.127V8.372h3.237c0.521,0,0.962,0.081,1.322,0.241c0.362,0.161,0.645,0.365,0.846,0.613
			c0.2,0.247,0.345,0.509,0.432,0.784c0.087,0.275,0.13,0.546,0.13,0.812c0,0.338-0.071,0.664-0.213,0.974
			c-0.143,0.312-0.359,0.579-0.653,0.803s-0.661,0.376-1.102,0.457v0.025c0.559,0.271,1.075,0.808,1.549,1.612l0.844,1.428
			c0.381,0.639,0.688,1.043,0.918,1.212c0.23,0.169,0.458,0.265,0.683,0.286v0.102h-1.701c-0.071-0.093-0.14-0.183-0.203-0.27
			c-0.062-0.087-0.131-0.179-0.203-0.276c-0.042-0.063-0.104-0.16-0.187-0.289c-0.083-0.129-0.134-0.202-0.149-0.219l-1.117-1.847
			c-0.225-0.376-0.454-0.682-0.688-0.917c-0.235-0.234-0.454-0.403-0.657-0.504s-0.386-0.165-0.549-0.19s-0.354-0.038-0.574-0.038
			v3.421c0,0.665,0.338,1.007,1.016,1.028v0.102h-2.978V17.62c0.187-0.008,0.352-0.043,0.495-0.104
			c0.144-0.062,0.264-0.167,0.357-0.317c0.097-0.15,0.145-0.353,0.145-0.606V9.521c0-0.373-0.092-0.635-0.273-0.787
			C590.704,8.582,590.502,8.505,590.286,8.505z M592.121,12.923h0.533c0.559,0,1.017-0.081,1.374-0.241
			c0.356-0.16,0.616-0.391,0.776-0.688c0.161-0.299,0.241-0.664,0.241-1.095c0-0.36-0.072-0.712-0.216-1.057
			c-0.145-0.345-0.389-0.635-0.733-0.869c-0.345-0.235-0.809-0.353-1.393-0.353c-0.237,0-0.432,0.019-0.584,0.057L592.121,12.923
			L592.121,12.923z"/>
	</g>
</g>
<g>
	<g>
		<path fill="#2169B3" d="M415.587,27.143v0.107c-0.178,0.021-0.305,0.039-0.381,0.055s-0.161,0.059-0.254,0.131
			c-0.144,0.108-0.234,0.213-0.27,0.311c-0.036,0.098-0.059,0.268-0.067,0.508c-0.013,0.038-0.013,0.076,0,0.114l0.324,6.944
			c0.008,0.291,0.078,0.543,0.209,0.756c0.131,0.211,0.417,0.318,0.857,0.322v0.103h-3.028v-0.103
			c0.398-0.041,0.667-0.156,0.806-0.346c0.139-0.189,0.199-0.48,0.178-0.879l-0.324-7.186h-0.025l-3.301,8.512l-3.123-8.201h-0.025
			l-0.336,6.627c-0.017,0.364,0.005,0.646,0.066,0.848c0.062,0.201,0.16,0.346,0.295,0.433c0.135,0.087,0.336,0.151,0.603,0.192
			v0.103h-2.355v-0.103c0.3-0.004,0.529-0.076,0.686-0.216s0.259-0.313,0.308-0.522c0.048-0.211,0.085-0.496,0.111-0.86l0.375-6.854
			c0-0.025-0.025-0.07-0.076-0.138c-0.051-0.065-0.113-0.131-0.188-0.196c-0.074-0.064-0.145-0.117-0.212-0.154
			c-0.144-0.09-0.269-0.141-0.375-0.156s-0.254-0.027-0.444-0.041v-0.107h2.171l2.895,7.648l2.939-7.648h1.961V27.143z"/>
		<path fill="#2169B3" d="M421.034,27.027l2.799,8.012c0.148,0.414,0.288,0.715,0.419,0.9c0.131,0.187,0.257,0.305,0.378,0.353
			c0.12,0.049,0.274,0.082,0.46,0.099v0.103h-3.053v-0.103c0.312,0,0.554-0.029,0.724-0.089c0.169-0.059,0.254-0.22,0.254-0.481
			c0-0.145-0.04-0.336-0.121-0.577c-0.017-0.034-0.024-0.06-0.024-0.076l-0.832-2.481H418.8l-0.743,2.297
			c-0.102,0.313-0.152,0.565-0.152,0.757c0,0.262,0.065,0.437,0.197,0.522c0.132,0.086,0.317,0.131,0.559,0.131v0.102h-2.196v-0.102
			c0.313-0.029,0.564-0.149,0.752-0.358c0.188-0.21,0.352-0.528,0.492-0.955l2.641-8.049h0.684V27.027z M418.907,32.348h2.977
			l-1.523-4.438h-0.025L418.907,32.348z"/>
		<path fill="#2169B3" d="M433.438,27.143v0.107c-0.264,0.018-0.494,0.049-0.695,0.096s-0.403,0.163-0.606,0.35
			c-0.146,0.14-0.248,0.232-0.301,0.279s-0.111,0.1-0.175,0.158l-3.188,3.148l3.81,4.304c0.296,0.33,0.549,0.537,0.759,0.622
			c0.209,0.084,0.477,0.146,0.803,0.184v0.103h-2.019l-4.184-4.729v3.6c0,0.664,0.334,1.008,1.003,1.027v0.103h-2.964v-0.103
			c0.187-0.008,0.352-0.043,0.495-0.104c0.145-0.061,0.265-0.167,0.358-0.317c0.096-0.149,0.143-0.353,0.143-0.605v-7.097
			c0-0.395-0.098-0.66-0.295-0.798c-0.196-0.137-0.43-0.21-0.701-0.219v-0.106h2.964v0.106c-0.668,0.021-1.003,0.36-1.003,1.017
			v3.452l3.586-3.586c0,0.009,0.009-0.005,0.025-0.038c0.199-0.183,0.298-0.339,0.298-0.47c0-0.147-0.058-0.241-0.174-0.278
			c-0.116-0.039-0.291-0.07-0.524-0.097v-0.106h2.585V27.143z"/>
		<path fill="#2169B3" d="M434.376,27.25v-0.107h5.573v1.474h-0.089c0-0.787-0.524-1.181-1.574-1.181h-1.949v4.246h1.715
			c0.338,0,0.642-0.056,0.907-0.166c0.267-0.108,0.419-0.36,0.457-0.755h0.095v2.12h-0.095c-0.038-0.24-0.11-0.427-0.216-0.556
			c-0.106-0.13-0.211-0.216-0.314-0.257c-0.104-0.043-0.194-0.063-0.274-0.063c-0.152-0.024-0.312-0.038-0.478-0.038h-1.797v3.319
			c0,0.25,0.048,0.466,0.145,0.647c0.095,0.183,0.315,0.272,0.663,0.272h1.391c0.334,0,0.609-0.049,0.824-0.146
			c0.217-0.098,0.387-0.232,0.512-0.406s0.229-0.383,0.313-0.629h0.089l-0.323,1.467h-5.573v-0.102h0.127
			c0.199,0,0.395-0.08,0.584-0.242c0.19-0.159,0.285-0.422,0.285-0.787v-7.045c0-0.287-0.064-0.537-0.193-0.75
			c-0.129-0.211-0.354-0.316-0.676-0.316H434.376z"/>
		<path fill="#2169B3" d="M449.611,27.027l2.8,8.012c0.147,0.414,0.288,0.715,0.419,0.9c0.131,0.187,0.257,0.305,0.378,0.353
			c0.12,0.049,0.273,0.082,0.46,0.099v0.103h-3.053v-0.103c0.312,0,0.554-0.029,0.723-0.089c0.17-0.059,0.254-0.22,0.254-0.481
			c0-0.145-0.04-0.336-0.12-0.577c-0.017-0.034-0.024-0.06-0.024-0.076l-0.831-2.481h-3.238l-0.742,2.297
			c-0.102,0.313-0.151,0.565-0.151,0.757c0,0.262,0.064,0.437,0.196,0.522c0.131,0.088,0.316,0.131,0.56,0.131v0.102h-2.197v-0.102
			c0.312-0.029,0.564-0.149,0.753-0.358c0.188-0.21,0.353-0.528,0.491-0.955l2.641-8.049h0.684V27.027z M447.485,32.348h2.978
			l-1.522-4.438h-0.025L447.485,32.348z"/>
		<path fill="#2169B3" d="M467.068,29.236h-0.108c-0.08-0.456-0.295-0.844-0.645-1.161s-0.75-0.55-1.202-0.695
			c-0.453-0.146-0.877-0.219-1.271-0.219c-0.538,0-1.043,0.112-1.515,0.34s-0.879,0.546-1.222,0.958
			c-0.344,0.413-0.609,0.908-0.801,1.484c-0.189,0.578-0.286,1.205-0.286,1.884c0,0.655,0.094,1.264,0.276,1.823
			c0.186,0.562,0.453,1.049,0.808,1.461c0.354,0.412,0.763,0.726,1.228,0.937c0.466,0.212,0.982,0.317,1.549,0.317
			c0.476,0,0.995-0.096,1.562-0.289c0.565-0.192,1.078-0.514,1.534-0.961v0.361c-0.562,0.437-1.076,0.756-1.545,0.959
			c-0.468,0.203-1.051,0.305-1.749,0.305c-0.735,0-1.407-0.135-2.016-0.403s-1.12-0.632-1.539-1.089s-0.736-0.971-0.952-1.542
			s-0.324-1.16-0.324-1.765c0-0.91,0.226-1.756,0.675-2.536c0.447-0.781,1.056-1.398,1.82-1.854
			c0.766-0.455,1.599-0.683,2.495-0.683c0.555,0,1.146,0.083,1.771,0.248l0.66,0.184c0.127,0.025,0.234,0.038,0.322,0.038
			c0.166,0,0.275-0.023,0.33-0.072c0.057-0.049,0.099-0.137,0.127-0.264h0.103L467.068,29.236z"/>
		<path fill="#2169B3" d="M475.275,31.421v-3.13c0-0.305-0.083-0.555-0.248-0.749s-0.421-0.292-0.769-0.292v-0.107h2.978v0.107
			c-0.348,0-0.602,0.098-0.763,0.289c-0.16,0.191-0.24,0.443-0.24,0.752v7.07c0,0.687,0.334,1.029,1.003,1.029v0.102h-2.978v-0.102
			c0.316,0,0.565-0.086,0.745-0.258s0.271-0.424,0.271-0.759v-3.669h-5.357v3.656c0,0.326,0.092,0.578,0.275,0.759
			c0.185,0.18,0.431,0.271,0.739,0.271v0.102h-2.978v-0.102c0.321,0,0.568-0.091,0.739-0.271c0.172-0.181,0.258-0.433,0.258-0.759
			V28.29c0-0.692-0.333-1.041-0.997-1.041v-0.106h2.978v0.106c-0.352,0-0.607,0.097-0.771,0.289s-0.244,0.442-0.244,0.752v3.13
			L475.275,31.421L475.275,31.421z"/>
		<path fill="#2169B3" d="M482.39,27.027l2.801,8.012c0.147,0.414,0.287,0.715,0.419,0.9c0.131,0.187,0.257,0.305,0.378,0.353
			c0.12,0.049,0.272,0.082,0.46,0.099v0.103h-3.054v-0.103c0.312,0,0.555-0.029,0.724-0.089c0.17-0.059,0.254-0.22,0.254-0.481
			c0-0.145-0.04-0.336-0.12-0.577c-0.017-0.034-0.025-0.06-0.025-0.076l-0.831-2.481h-3.237l-0.742,2.297
			c-0.103,0.313-0.152,0.565-0.152,0.757c0,0.262,0.065,0.437,0.197,0.522c0.131,0.088,0.316,0.131,0.559,0.131v0.102h-2.196v-0.102
			c0.312-0.029,0.563-0.149,0.753-0.358c0.188-0.21,0.353-0.528,0.491-0.955l2.641-8.049h0.683V27.027z M480.264,32.348h2.979
			l-1.523-4.438h-0.024L480.264,32.348z"/>
		<path fill="#2169B3" d="M496.755,27.143v0.107c-0.237,0.03-0.425,0.075-0.562,0.137c-0.138,0.062-0.244,0.182-0.32,0.361
			c-0.076,0.182-0.114,0.439-0.114,0.777v8.201h-0.062l-7.181-8.011v5.751c0,0.479,0.021,0.833,0.059,1.066
			c0.038,0.232,0.093,0.398,0.165,0.501c0.155,0.221,0.43,0.339,0.817,0.354v0.103h-2.342v-0.103
			c0.263-0.013,0.467-0.068,0.612-0.168s0.25-0.281,0.312-0.546c0.062-0.265,0.093-0.663,0.093-1.196V28.38l-0.312-0.349
			c-0.275-0.313-0.496-0.512-0.66-0.594c-0.166-0.084-0.371-0.146-0.616-0.188v-0.106h1.76l7.069,7.922v-6.037
			c0-0.452-0.018-0.791-0.054-1.017c-0.036-0.224-0.131-0.403-0.285-0.538c-0.153-0.137-0.396-0.211-0.728-0.224v-0.106H496.755
			L496.755,27.143z"/>
		<path fill="#2169B3" d="M506.193,29.085h-0.103c-0.135-0.608-0.494-1.083-1.078-1.419c-0.584-0.337-1.251-0.505-2-0.505
			c-0.39,0-0.808,0.062-1.254,0.181c-0.446,0.121-0.881,0.34-1.305,0.657c-0.423,0.317-0.773,0.776-1.053,1.381
			c-0.279,0.603-0.42,1.361-0.42,2.275c0,1.456,0.34,2.62,1.02,3.491c0.679,0.871,1.77,1.308,3.271,1.308
			c0.594,0,1.029-0.04,1.31-0.12c0.279-0.081,0.458-0.189,0.536-0.33c0.078-0.14,0.117-0.328,0.117-0.564v-1.715
			c0-0.406-0.089-0.675-0.265-0.806c-0.176-0.132-0.438-0.218-0.79-0.261v-0.107h3.041v0.107c-0.278,0.029-0.496,0.09-0.647,0.181
			c-0.152,0.093-0.254,0.209-0.306,0.353c-0.051,0.146-0.075,0.336-0.075,0.572v2.603c-0.932,0.25-1.892,0.375-2.882,0.375
			c-0.513,0-1.019-0.043-1.518-0.127c-0.499-0.085-1.02-0.273-1.562-0.565c-0.542-0.292-1.02-0.724-1.435-1.295
			c-0.622-0.857-0.934-1.83-0.934-2.913c0-0.631,0.117-1.243,0.353-1.841s0.573-1.131,1.016-1.604s0.983-0.845,1.622-1.117
			c0.64-0.272,1.349-0.409,2.127-0.409c0.301,0,0.595,0.021,0.883,0.062c0.288,0.039,0.718,0.121,1.288,0.243
			c0.225,0.052,0.386,0.076,0.481,0.076c0.208,0,0.36-0.104,0.457-0.312h0.103v2.146H506.193z"/>
		<path fill="#2169B3" d="M507.781,27.25v-0.107h5.572v1.474h-0.089c0-0.787-0.523-1.181-1.573-1.181h-1.949v4.246h1.715
			c0.338,0,0.641-0.056,0.907-0.166c0.267-0.108,0.419-0.36,0.457-0.755h0.095v2.12h-0.095c-0.038-0.24-0.11-0.427-0.216-0.556
			c-0.106-0.13-0.212-0.216-0.314-0.257c-0.104-0.043-0.195-0.063-0.275-0.063c-0.151-0.024-0.312-0.038-0.477-0.038h-1.797v3.319
			c0,0.25,0.048,0.466,0.144,0.647c0.095,0.183,0.316,0.272,0.663,0.272h1.391c0.334,0,0.609-0.049,0.824-0.146
			c0.217-0.098,0.388-0.232,0.513-0.406s0.229-0.383,0.313-0.629h0.088l-0.322,1.467h-5.573v-0.102h0.127
			c0.199,0,0.394-0.08,0.584-0.242c0.189-0.159,0.285-0.422,0.285-0.787v-7.045c0-0.287-0.064-0.537-0.193-0.75
			c-0.129-0.211-0.354-0.316-0.676-0.316H507.781z"/>
	</g>
</g>
<line fill="none" stroke="#A5CF57" stroke-width="2" stroke-miterlimit="10" x1="318.005" y1="23.557" x2="596.869" y2="23.557"/>
</svg>
