<?xml version="1.0" encoding="utf-8"?>
<!-- Generator: Adobe Illustrator 16.0.4, SVG Export Plug-In . SVG Version: 6.00 Build 0)  -->
<!DOCTYPE svg PUBLIC "-//W3C//DTD SVG 1.1//EN" "http://www.w3.org/Graphics/SVG/1.1/DTD/svg11.dtd">
<svg version="1.1" id="Layer_1" xmlns="http://www.w3.org/2000/svg" xmlns:xlink="http://www.w3.org/1999/xlink" x="0px" y="0px"
	 width="500px" height="50px" viewBox="0 0 500 50" enable-background="new 0 0 500 50" xml:space="preserve">
<g>
	<path fill="#246AB4" d="M48.962,15.037h-0.297c-0.173-1.323-0.751-2.483-1.735-3.479c-0.983-0.996-2.279-1.494-3.887-1.494
		c-1.052,0-1.985,0.248-2.802,0.742c-0.816,0.495-1.447,1.169-1.893,2.022c-0.446,0.853-0.668,1.831-0.668,2.932
		c0,0.854,0.133,1.611,0.399,2.273c0.266,0.662,0.659,1.247,1.178,1.753c0.52,0.507,1.132,0.979,1.837,1.419
		s1.657,0.993,2.857,1.661c2.004,1.101,3.562,2.198,4.676,3.294c1.113,1.094,1.67,2.594,1.67,4.5c0,1.162-0.3,2.285-0.9,3.367
		c-0.6,1.082-1.506,1.971-2.718,2.66c-1.212,0.693-2.715,1.039-4.509,1.039c-1.126,0-2.122-0.117-2.987-0.359
		c-0.866-0.24-1.744-0.578-2.635-1.014c-0.371-0.123-0.625-0.186-0.761-0.186c-0.26,0-0.43,0.094-0.51,0.277
		c-0.081,0.188-0.189,0.588-0.325,1.207h-0.315v-6.844h0.315c0.445,2.004,1.311,3.521,2.598,4.547
		c1.286,1.027,2.851,1.539,4.694,1.539c1.385,0,2.496-0.26,3.331-0.777c0.835-0.52,1.413-1.15,1.735-1.895
		c0.321-0.742,0.482-1.482,0.482-2.227c0-1.533-0.467-2.785-1.401-3.756c-0.934-0.973-2.354-1.965-4.258-2.98
		c-1.312-0.717-2.282-1.273-2.913-1.67c-0.631-0.396-1.271-0.908-1.92-1.539s-1.166-1.377-1.549-2.236
		c-0.384-0.859-0.575-1.846-0.575-2.959c0-1.286,0.34-2.517,1.021-3.692c0.68-1.175,1.645-2.118,2.895-2.83
		c1.249-0.711,2.666-1.067,4.249-1.067c1.2,0,2.431,0.204,3.692,0.612c0.198,0.099,0.464,0.148,0.798,0.148
		c0.408,0,0.687-0.278,0.835-0.835h0.297L48.962,15.037L48.962,15.037z"/>
	<path fill="#246AB4" d="M90.802,36.822h0.371c0.668,0,1.259-0.264,1.771-0.789c0.514-0.523,0.771-1.266,0.771-2.219V13.182
		c0-1.138-0.288-1.93-0.862-2.375c-0.576-0.445-1.26-0.68-2.051-0.705V9.786h8.739v0.315c-0.768,0.025-1.447,0.254-2.041,0.687
		c-0.594,0.433-0.891,1.231-0.891,2.394v19.947c0,1.188,0.297,2.01,0.891,2.467c0.594,0.459,1.564,0.688,2.913,0.688h2.356
		c1.026,0,1.847-0.123,2.458-0.371c0.613-0.246,1.098-0.623,1.457-1.131c0.358-0.508,0.724-1.227,1.095-2.152h0.315l-1.039,4.49
		H90.801L90.802,36.822L90.802,36.822z"/>
	<path fill="#246AB4" d="M122.216,9.452l8.183,23.417c0.433,1.213,0.841,2.092,1.225,2.635c0.383,0.545,0.752,0.889,1.104,1.029
		c0.354,0.143,0.801,0.236,1.346,0.287v0.297h-8.925V36.82c0.915,0,1.62-0.086,2.115-0.26c0.494-0.174,0.742-0.643,0.742-1.41
		c0-0.42-0.118-0.982-0.353-1.688c-0.05-0.1-0.074-0.174-0.074-0.223l-2.431-7.256h-9.463l-2.171,6.717
		c-0.297,0.916-0.445,1.65-0.445,2.209c0,0.768,0.191,1.275,0.575,1.529c0.383,0.256,0.928,0.381,1.633,0.381v0.297h-6.42V36.82
		c0.915-0.086,1.648-0.438,2.198-1.049c0.551-0.611,1.03-1.543,1.438-2.793l7.719-23.527L122.216,9.452L122.216,9.452z M116,25.001
		h8.702l-4.453-12.97h-0.074L116,25.001z"/>
	<path fill="#246AB4" d="M136.207,10.176h-0.371v-0.39h9.463c1.521,0,2.811,0.235,3.869,0.705c1.057,0.47,1.88,1.067,2.467,1.791
		c0.588,0.724,1.009,1.488,1.262,2.292c0.254,0.804,0.381,1.596,0.381,2.375c0,0.99-0.207,1.939-0.621,2.848
		c-0.415,0.909-1.052,1.692-1.912,2.348c-0.859,0.656-1.933,1.101-3.219,1.336v0.074c1.633,0.791,3.142,2.363,4.527,4.713
		l2.468,4.176c1.113,1.867,2.007,3.049,2.681,3.543c0.675,0.494,1.339,0.773,1.995,0.836v0.297h-4.973
		c-0.211-0.271-0.408-0.533-0.594-0.789c-0.186-0.254-0.384-0.521-0.594-0.809c-0.124-0.186-0.306-0.467-0.548-0.844
		c-0.24-0.377-0.387-0.59-0.436-0.641l-3.266-5.398c-0.656-1.102-1.326-1.994-2.014-2.682c-0.686-0.688-1.326-1.178-1.92-1.477
		c-0.594-0.297-1.129-0.481-1.605-0.557c-0.476-0.074-1.036-0.111-1.679-0.111v10.002c0,1.941,0.989,2.943,2.969,3.008v0.297h-8.702
		v-0.297c0.544-0.025,1.026-0.127,1.447-0.309c0.42-0.18,0.77-0.486,1.049-0.928c0.277-0.439,0.417-1.029,0.417-1.771v-20.67
		c0-1.088-0.267-1.855-0.798-2.301C137.419,10.399,136.838,10.176,136.207,10.176z M141.569,23.09h1.559
		c1.633,0,2.972-0.234,4.017-0.705c1.046-0.47,1.803-1.141,2.273-2.013c0.47-0.872,0.705-1.938,0.705-3.201
		c0-1.051-0.211-2.081-0.631-3.089c-0.421-1.008-1.135-1.855-2.143-2.542c-1.009-0.687-2.366-1.03-4.073-1.03
		c-0.693,0-1.262,0.056-1.707,0.167V23.09L141.569,23.09z"/>
	<path fill="#246AB4" d="M169.53,9.786v0.315c-0.816,0-1.51,0.229-2.078,0.687c-0.569,0.458-0.854,1.219-0.854,2.282v20.744
		c0,1.053,0.303,1.814,0.909,2.291c0.605,0.479,1.28,0.715,2.022,0.715v0.297h-8.665V36.82c0.791,0,1.475-0.23,2.051-0.695
		c0.574-0.463,0.862-1.232,0.862-2.311V13.071c0-1.138-0.288-1.917-0.862-2.338c-0.576-0.42-1.26-0.631-2.051-0.631V9.786H169.53z"
		/>
	<path fill="#246AB4" d="M186.341,15.037h-0.297c-0.174-1.323-0.751-2.483-1.735-3.479c-0.982-0.996-2.279-1.494-3.887-1.494
		c-1.052,0-1.985,0.248-2.802,0.742c-0.816,0.495-1.447,1.169-1.893,2.022c-0.446,0.853-0.668,1.831-0.668,2.932
		c0,0.854,0.133,1.611,0.399,2.273c0.266,0.662,0.658,1.247,1.178,1.753c0.52,0.507,1.132,0.979,1.837,1.419
		s1.657,0.993,2.857,1.661c2.004,1.101,3.562,2.198,4.676,3.294c1.113,1.094,1.67,2.594,1.67,4.5c0,1.162-0.3,2.285-0.899,3.367
		c-0.601,1.082-1.507,1.971-2.719,2.66c-1.213,0.693-2.716,1.039-4.509,1.039c-1.126,0-2.122-0.117-2.987-0.359
		c-0.866-0.24-1.744-0.578-2.635-1.014c-0.371-0.123-0.625-0.186-0.761-0.186c-0.26,0-0.43,0.094-0.511,0.277
		c-0.08,0.188-0.188,0.588-0.324,1.207h-0.315v-6.844h0.315c0.445,2.004,1.311,3.521,2.598,4.547
		c1.286,1.027,2.851,1.539,4.694,1.539c1.385,0,2.495-0.26,3.331-0.777c0.834-0.521,1.412-1.15,1.734-1.895
		c0.321-0.742,0.482-1.482,0.482-2.227c0-1.533-0.467-2.785-1.4-3.756c-0.935-0.973-2.354-1.965-4.259-2.98
		c-1.312-0.717-2.282-1.273-2.913-1.67c-0.631-0.396-1.271-0.908-1.92-1.539c-0.65-0.631-1.167-1.377-1.55-2.236
		c-0.384-0.859-0.575-1.846-0.575-2.959c0-1.286,0.34-2.517,1.021-3.692c0.68-1.175,1.645-2.118,2.895-2.83
		c1.249-0.711,2.665-1.067,4.249-1.067c1.199,0,2.431,0.204,3.692,0.612c0.197,0.099,0.464,0.148,0.798,0.148
		c0.408,0,0.688-0.278,0.835-0.835h0.297L186.341,15.037L186.341,15.037z"/>
</g>
<g>
	<g>
		<g>
			<path fill="#A5CF59" d="M62.814,14.736c0.638,0.567,0.694,1.544,0.126,2.181c-0.565,0.637-1.543,0.695-2.18,0.128
				c-0.639-0.566-0.695-1.543-0.128-2.182C61.2,14.227,62.177,14.168,62.814,14.736z"/>
			<path fill="#A5CF59" d="M59.777,12.564c0.478,0.425,0.521,1.158,0.095,1.636c-0.426,0.479-1.156,0.521-1.636,0.097
				c-0.478-0.427-0.521-1.159-0.097-1.638C58.565,12.181,59.298,12.138,59.777,12.564z"/>
			<path fill="#A5CF59" d="M58.584,23.989c0.724,0.042,1.276,0.665,1.233,1.39c-0.043,0.723-0.666,1.275-1.389,1.23
				c-0.725-0.041-1.276-0.662-1.234-1.387C57.237,24.497,57.858,23.945,58.584,23.989z"/>
			<path fill="#A5CF59" d="M55.122,24.112c0.543,0.032,0.959,0.499,0.927,1.043c-0.033,0.542-0.499,0.956-1.042,0.927
				c-0.544-0.035-0.958-0.502-0.926-1.044C54.114,24.495,54.581,24.08,55.122,24.112z"/>
			<path fill="#A5CF59" d="M60.784,32.49c0.506-0.35,1.201-0.227,1.555,0.279c0.352,0.506,0.229,1.201-0.277,1.555
				c-0.506,0.354-1.201,0.229-1.555-0.275C60.155,33.541,60.278,32.846,60.784,32.49z"/>
			<path fill="#A5CF59" d="M58.54,34.395c0.38-0.262,0.902-0.168,1.167,0.209c0.264,0.381,0.172,0.902-0.209,1.168
				c-0.38,0.264-0.901,0.17-1.167-0.209C58.067,35.184,58.161,34.66,58.54,34.395z"/>
			<path fill="#A5CF59" d="M68.448,12.636c0.498,0.907,0.168,2.047-0.737,2.548c-0.907,0.498-2.047,0.167-2.546-0.738
				c-0.5-0.907-0.169-2.047,0.737-2.548C66.808,11.401,67.948,11.73,68.448,12.636z"/>
			<path fill="#A5CF59" d="M60.946,19.262c0.941,0.342,1.428,1.385,1.086,2.326c-0.345,0.94-1.385,1.428-2.328,1.084
				c-0.941-0.342-1.426-1.383-1.084-2.326C58.964,19.406,60.005,18.92,60.946,19.262z"/>
			<path fill="#A5CF59" d="M59.91,27.982c0.833-0.238,1.704,0.244,1.942,1.076c0.238,0.834-0.244,1.703-1.078,1.941
				c-0.833,0.238-1.703-0.244-1.941-1.076C58.595,29.092,59.077,28.221,59.91,27.982z"/>
			<path fill="#A5CF59" d="M63.327,34.395c0.289-0.48,0.913-0.637,1.396-0.348c0.481,0.287,0.638,0.914,0.349,1.393
				c-0.289,0.482-0.914,0.639-1.395,0.352C63.195,35.502,63.04,34.877,63.327,34.395z"/>
			<path fill="#A5CF59" d="M71.827,8.285c-1.152,0-2.084,0.933-2.084,2.083s0.932,2.084,2.084,2.084
				c1.149,0,2.082-0.934,2.082-2.084S72.976,8.285,71.827,8.285z"/>
			<path fill="#A5CF59" d="M71.827,4.499c-0.71,0-1.285,0.575-1.285,1.284s0.575,1.284,1.285,1.284c0.709,0,1.282-0.575,1.282-1.284
				C73.109,5.075,72.536,4.499,71.827,4.499z"/>
			<path fill="#A5CF59" d="M80.839,14.736c-0.638,0.567-0.693,1.544-0.127,2.181c0.566,0.637,1.543,0.695,2.18,0.128
				c0.639-0.566,0.694-1.543,0.129-2.182C82.454,14.227,81.475,14.168,80.839,14.736z"/>
			<path fill="#A5CF59" d="M83.876,12.564c-0.478,0.425-0.521,1.158-0.096,1.636c0.426,0.479,1.16,0.521,1.637,0.097
				c0.478-0.427,0.52-1.159,0.096-1.638C85.087,12.181,84.354,12.138,83.876,12.564z"/>
			<path fill="#A5CF59" d="M85.069,23.989c-0.725,0.042-1.275,0.665-1.234,1.39c0.043,0.723,0.666,1.275,1.389,1.23
				c0.724-0.041,1.275-0.662,1.234-1.387C86.415,24.497,85.794,23.945,85.069,23.989z"/>
			<path fill="#A5CF59" d="M88.53,24.112c-0.543,0.032-0.958,0.499-0.926,1.043c0.033,0.542,0.498,0.956,1.042,0.927
				c0.543-0.035,0.957-0.502,0.925-1.044C89.54,24.495,89.072,24.08,88.53,24.112z"/>
			<path fill="#A5CF59" d="M82.868,32.49c-0.504-0.35-1.201-0.227-1.555,0.279c-0.352,0.506-0.227,1.201,0.277,1.555
				c0.507,0.354,1.203,0.229,1.555-0.275C83.497,33.541,83.374,32.846,82.868,32.49z"/>
			<path fill="#A5CF59" d="M85.112,34.395c-0.38-0.262-0.901-0.168-1.166,0.209c-0.264,0.381-0.17,0.902,0.209,1.168
				c0.379,0.264,0.9,0.17,1.166-0.209C85.585,35.184,85.491,34.66,85.112,34.395z"/>
			<path fill="#A5CF59" d="M75.205,12.636c-0.5,0.907-0.168,2.047,0.737,2.548c0.906,0.498,2.047,0.167,2.547-0.738
				c0.498-0.907,0.168-2.047-0.74-2.548C76.844,11.401,75.704,11.73,75.205,12.636z"/>
			<path fill="#A5CF59" d="M82.706,19.262c-0.941,0.342-1.426,1.385-1.084,2.326c0.342,0.94,1.383,1.428,2.326,1.084
				c0.941-0.342,1.426-1.383,1.085-2.326C84.69,19.406,83.647,18.92,82.706,19.262z"/>
			<path fill="#A5CF59" d="M83.743,27.982c-0.834-0.238-1.703,0.244-1.943,1.076c-0.238,0.834,0.246,1.703,1.08,1.941
				c0.832,0.238,1.7-0.244,1.941-1.076C85.057,29.092,84.577,28.221,83.743,27.982z"/>
			<path fill="#A5CF59" d="M80.325,34.395c-0.288-0.48-0.914-0.637-1.396-0.348c-0.481,0.287-0.638,0.914-0.347,1.393
				c0.287,0.482,0.912,0.639,1.393,0.352C80.456,35.502,80.612,34.877,80.325,34.395z"/>
			<path fill="#A5CF59" d="M71.825,13.851c0.002,0,0.002,0,0.002,0l0,0H71.825z"/>
			<path fill="#A5CF59" d="M82.827,25.438c-0.038-0.641-0.416-1.184-0.949-1.455l-0.013,0.013c-1.112-0.53-1.882-1.667-1.882-2.981
				c0-0.428,0.082-0.834,0.229-1.211l0.008,0.004c0.254-0.69,0.128-1.496-0.394-2.083c-0.507-0.57-1.261-0.792-1.959-0.648
				l0.005,0.001c-0.273,0.072-0.557,0.111-0.851,0.111c-1.37,0-2.548-0.836-3.048-2.026l0.005-0.001
				c-0.403-0.778-1.218-1.308-2.151-1.308c-0.937,0-1.75,0.53-2.154,1.308l0.006,0.001c-0.502,1.19-1.677,2.026-3.048,2.026
				c-0.292,0-0.579-0.039-0.849-0.111l0.004-0.001c-0.697-0.144-1.453,0.077-1.961,0.648c-0.522,0.587-0.646,1.393-0.393,2.083
				l0.008-0.004c0.146,0.377,0.229,0.783,0.229,1.211c0,1.314-0.768,2.451-1.881,2.981l-0.012-0.013
				c-0.535,0.271-0.913,0.814-0.951,1.455c-0.039,0.646,0.279,1.232,0.785,1.564l0,0c0.889,0.592,1.477,1.604,1.477,2.754
				c0,0.383-0.064,0.75-0.186,1.094l-0.002-0.012c-0.199,0.455-0.162,1.004,0.145,1.441c0.283,0.406,0.736,0.629,1.199,0.637v-0.002
				c0.946,0,1.699,0.797,1.706,1.773c0,0.057,0.003,0.035,0,0.086c-0.02,0.545,0.318,1.061,0.862,1.24
				c0.662,0.223,1.379-0.135,1.602-0.797c0.107-0.318,0.078-0.646-0.053-0.934l-0.026-0.021c-0.569-1.088-1.62-2.256-1.795-2.434
				c-1.637-1.602-2.28-3.354-2.28-5.545c0-4.182,3.387-7.572,7.568-7.587c4.18,0.015,7.565,3.405,7.565,7.587
				c0,2.189-0.644,3.943-2.279,5.545c-0.176,0.178-1.226,1.346-1.795,2.434l-0.028,0.021c-0.129,0.283-0.16,0.613-0.053,0.934
				c0.223,0.662,0.939,1.02,1.604,0.797c0.543-0.184,0.88-0.695,0.861-1.24c-0.003-0.051,0-0.029,0-0.086
				c0.008-0.979,0.76-1.773,1.706-1.773v0.002c0.463-0.008,0.917-0.23,1.201-0.637c0.307-0.439,0.343-0.986,0.144-1.441
				l-0.002,0.012c-0.119-0.344-0.186-0.711-0.186-1.094c0-1.15,0.586-2.162,1.477-2.754h0.002
				C82.548,26.67,82.866,26.084,82.827,25.438z"/>
		</g>
	</g>
	<g>
		<polygon fill="#A5CF59" points="73.56,37.605 73.071,37.605 73.071,38.105 73.56,38.043 		"/>
		<path fill="#A5CF59" d="M73.56,40.529v-0.238l1.683-0.227c0.134-0.018,0.229-0.143,0.21-0.275
			c-0.019-0.135-0.142-0.229-0.276-0.211l-4.289,0.561c-0.135,0.02-0.258-0.074-0.275-0.209s0.076-0.258,0.21-0.273l1.606-0.219
			v-0.238l0.643-0.086v0.238l0.489-0.064v-0.238l1.683-0.229c0.134-0.018,0.229-0.143,0.21-0.273
			c-0.019-0.137-0.142-0.229-0.276-0.209l-4.289,0.559c-0.135,0.02-0.258-0.074-0.275-0.211c-0.018-0.133,0.076-0.258,0.21-0.273
			l1.606-0.221v-0.584l-3.738,0.004v1.104l-0.078,0.014c-0.164,0.021-0.278,0.172-0.257,0.336c0.022,0.162,0.172,0.277,0.335,0.256
			v0.637l-0.078,0.018c-0.164,0.021-0.278,0.174-0.257,0.336c0.022,0.162,0.172,0.279,0.335,0.256v0.641l-0.078,0.016
			c-0.164,0.021-0.278,0.172-0.257,0.336c0.022,0.162,0.172,0.277,0.335,0.254v0.002v0.609l0.789,0.768h1.241
			c0.015,0.34,0.48,0.611,1.052,0.611c0.572,0,1.036-0.271,1.053-0.611h1.309l0.785-0.76l-0.004-1.07l0.328-0.045
			c0.134-0.018,0.229-0.143,0.21-0.275c-0.019-0.135-0.142-0.229-0.276-0.209V40.83l-4.289,0.562
			c-0.135,0.02-0.258-0.076-0.276-0.209c-0.018-0.139,0.077-0.258,0.211-0.275l1.606-0.219v-0.24l0.643-0.086V40.6L73.56,40.529z
			 M69.928,38.529c0.141,0,0.253,0.113,0.253,0.252c0,0.141-0.112,0.252-0.253,0.252c-0.139,0-0.252-0.111-0.252-0.252
			C69.676,38.643,69.79,38.529,69.928,38.529z M69.928,41.523c-0.139,0-0.252-0.113-0.252-0.254c0-0.139,0.113-0.252,0.252-0.252
			c0.141,0,0.253,0.113,0.253,0.252C70.181,41.41,70.069,41.523,69.928,41.523z M69.938,40.277c-0.139,0-0.253-0.113-0.253-0.252
			s0.114-0.252,0.253-0.252c0.141,0,0.252,0.113,0.252,0.252S70.079,40.277,69.938,40.277z"/>
	</g>
	<path fill="#BADA8B" d="M74.37,27.234c0,0,1.514-0.602,1.899-1.256c0.386-0.652,0.282-1.535,0.282-1.535s-0.787,0.053-1.719,0.752
		C73.9,25.895,74.37,27.234,74.37,27.234L74.37,27.234z M74.438,29.508c0,0,1.9-0.207,2.543-0.826
		c0.641-0.619,0.799-1.65,0.799-1.65s-0.907-0.188-2.18,0.314C74.326,27.846,74.438,29.508,74.438,29.508L74.438,29.508z
		 M70.338,30.465c0,0-0.763-2.646-1.799-3.402c-1.036-0.758-2.538-0.73-2.538-0.73s-0.042,1.334,0.981,3.02
		C68.007,31.033,70.338,30.465,70.338,30.465L70.338,30.465z M73.661,27.391c0,0,0.15-1.348-0.178-1.885
		c-0.33-0.539-1.017-0.809-1.017-0.809s-0.271,0.6-0.12,1.557C72.496,27.211,73.661,27.391,73.661,27.391L73.661,27.391z
		 M70.711,27.596c0,0,0.297-2.662-0.354-3.727c-0.651-1.064-2.013-1.6-2.013-1.6s-0.531,1.186-0.236,3.078
		C68.403,27.242,70.711,27.596,70.711,27.596L70.711,27.596z M74.053,27.777l-0.381-0.045c-0.109,0.723-0.694,2.062-1.285,3.15
		c-0.383-1.033-0.83-1.941-1.227-2.619l-0.676,0.125c0.645,1.902,0.675,6.695,0.252,8.633h2.381c0.31-1.486,0.145-3.082-0.233-4.555
		C73.96,30.951,74.127,28.898,74.053,27.777z"/>
</g>
<g>
	<g>
		<path fill="#246AB4" d="M198.472,18.151h-3.498v-0.102h0.127c0.237,0,0.441-0.086,0.612-0.257
			c0.172-0.172,0.257-0.429,0.257-0.771V9.963c0-0.334-0.08-0.594-0.238-0.777c-0.159-0.185-0.374-0.276-0.645-0.276h-0.114V8.801
			h3.053c0.402,0,0.772,0.058,1.111,0.174c0.338,0.117,0.625,0.277,0.86,0.482c0.234,0.206,0.416,0.438,0.542,0.698
			c0.127,0.261,0.19,0.543,0.19,0.848c0,0.563-0.182,1.02-0.546,1.371c-0.364,0.351-0.853,0.609-1.466,0.774v0.025
			c0.279,0.03,0.548,0.074,0.806,0.133c0.258,0.059,0.491,0.142,0.698,0.248s0.402,0.243,0.584,0.413
			c0.165,0.152,0.305,0.319,0.419,0.501c0.114,0.182,0.201,0.38,0.26,0.594c0.059,0.213,0.089,0.433,0.089,0.657
			c0,0.487-0.126,0.906-0.378,1.257c-0.251,0.351-0.536,0.618-0.854,0.8C199.892,18.026,199.268,18.151,198.472,18.151z
			 M196.936,13.092h0.609c0.5,0,0.855-0.051,1.066-0.152c0.135-0.068,0.276-0.161,0.422-0.279c0.146-0.119,0.285-0.305,0.419-0.559
			c0.133-0.254,0.2-0.561,0.2-0.92c0-0.279-0.044-0.545-0.133-0.797c-0.089-0.251-0.218-0.475-0.387-0.669
			c-0.169-0.194-0.37-0.347-0.603-0.457s-0.487-0.165-0.762-0.165c-0.241,0-0.519,0.046-0.832,0.14L196.936,13.092L196.936,13.092z
			 M197.895,13.378h-0.958v3.371c0,0.224,0.022,0.412,0.067,0.562c0.044,0.15,0.166,0.28,0.365,0.39
			c0.199,0.11,0.506,0.165,0.92,0.165c0.859,0,1.471-0.286,1.834-0.857c0.25-0.394,0.375-0.836,0.375-1.327
			c0-0.355-0.062-0.677-0.188-0.965c-0.125-0.288-0.296-0.528-0.514-0.72c-0.218-0.193-0.492-0.344-0.822-0.454
			C198.644,13.433,198.284,13.378,197.895,13.378z"/>
		<path fill="#246AB4" d="M202.541,8.934h-0.127V8.801h3.237c0.521,0,0.962,0.081,1.323,0.241c0.362,0.161,0.644,0.365,0.845,0.613
			c0.201,0.247,0.345,0.509,0.432,0.784c0.086,0.275,0.13,0.546,0.13,0.812c0,0.338-0.071,0.664-0.213,0.974
			c-0.142,0.312-0.359,0.579-0.653,0.803s-0.662,0.376-1.102,0.457v0.025c0.559,0.271,1.075,0.808,1.549,1.612l0.844,1.428
			c0.381,0.639,0.687,1.043,0.917,1.212s0.458,0.265,0.682,0.286v0.102h-1.701c-0.072-0.093-0.14-0.183-0.203-0.27
			s-0.131-0.179-0.203-0.276c-0.042-0.063-0.105-0.16-0.187-0.289c-0.083-0.129-0.132-0.202-0.149-0.219l-1.117-1.847
			c-0.224-0.376-0.454-0.682-0.688-0.917c-0.235-0.234-0.454-0.403-0.657-0.504c-0.203-0.101-0.386-0.165-0.549-0.19
			s-0.354-0.038-0.575-0.038v3.421c0,0.665,0.338,1.007,1.016,1.028v0.102h-2.977v-0.102c0.186-0.008,0.351-0.043,0.495-0.104
			c0.144-0.062,0.264-0.167,0.358-0.317c0.096-0.15,0.143-0.353,0.143-0.606V9.95c0-0.373-0.091-0.635-0.273-0.787
			S202.757,8.934,202.541,8.934z M204.376,13.352h0.533c0.559,0,1.017-0.081,1.375-0.241c0.357-0.161,0.617-0.391,0.777-0.688
			c0.161-0.299,0.241-0.664,0.241-1.095c0-0.36-0.072-0.712-0.216-1.057c-0.144-0.345-0.388-0.635-0.733-0.869
			c-0.345-0.235-0.809-0.353-1.393-0.353c-0.237,0-0.432,0.019-0.584,0.057L204.376,13.352L204.376,13.352z"/>
		<path fill="#246AB4" d="M213.942,8.801v0.108c-0.279,0-0.516,0.078-0.711,0.235c-0.195,0.157-0.292,0.417-0.292,0.781v7.097
			c0,0.36,0.104,0.621,0.311,0.784c0.208,0.163,0.438,0.244,0.692,0.244v0.102h-2.964V18.05c0.271,0,0.505-0.079,0.701-0.238
			c0.197-0.158,0.295-0.422,0.295-0.79V9.925c0-0.389-0.098-0.656-0.295-0.8c-0.196-0.144-0.43-0.216-0.701-0.216V8.801H213.942z"/>
		<path fill="#246AB4" d="M224.568,8.801v0.108c-0.237,0.03-0.424,0.075-0.562,0.137c-0.137,0.061-0.244,0.182-0.32,0.361
			c-0.076,0.18-0.114,0.439-0.114,0.778v8.202h-0.063l-7.179-8.012v5.751c0,0.478,0.019,0.833,0.057,1.066
			c0.038,0.233,0.093,0.4,0.165,0.501c0.157,0.22,0.43,0.338,0.819,0.355v0.102h-2.342v-0.102c0.262-0.013,0.467-0.069,0.612-0.168
			c0.146-0.1,0.25-0.282,0.312-0.546c0.061-0.265,0.092-0.664,0.092-1.197v-6.1l-0.311-0.349c-0.275-0.313-0.495-0.511-0.66-0.593
			c-0.165-0.083-0.37-0.145-0.616-0.188V8.801h1.758l7.071,7.922v-6.037c0-0.453-0.018-0.792-0.054-1.016
			c-0.036-0.224-0.131-0.404-0.285-0.54c-0.155-0.135-0.397-0.209-0.727-0.222V8.801H224.568z"/>
		<path fill="#246AB4" d="M234.007,10.743h-0.102c-0.135-0.609-0.495-1.083-1.079-1.418c-0.584-0.337-1.25-0.505-2-0.505
			c-0.389,0-0.807,0.061-1.254,0.181c-0.446,0.121-0.881,0.34-1.304,0.657c-0.423,0.317-0.774,0.777-1.054,1.381
			c-0.279,0.603-0.419,1.361-0.419,2.275c0,1.456,0.339,2.62,1.019,3.491c0.679,0.872,1.77,1.308,3.272,1.308
			c0.592,0,1.028-0.04,1.308-0.121c0.28-0.081,0.458-0.19,0.537-0.33c0.078-0.14,0.117-0.328,0.117-0.565v-1.714
			c0-0.406-0.088-0.675-0.264-0.806c-0.175-0.131-0.439-0.218-0.79-0.26v-0.108h3.041v0.108c-0.279,0.03-0.495,0.09-0.647,0.181
			c-0.152,0.091-0.254,0.208-0.305,0.353c-0.051,0.145-0.076,0.334-0.076,0.571v2.603c-0.931,0.25-1.892,0.375-2.882,0.375
			c-0.512,0-1.018-0.042-1.517-0.127c-0.499-0.086-1.02-0.273-1.562-0.565s-1.02-0.724-1.435-1.295
			c-0.622-0.859-0.933-1.83-0.933-2.914c0-0.63,0.118-1.244,0.352-1.841c0.235-0.597,0.574-1.131,1.016-1.603
			s0.983-0.844,1.622-1.117c0.639-0.272,1.348-0.409,2.126-0.409c0.3,0,0.595,0.02,0.882,0.061c0.288,0.04,0.717,0.122,1.289,0.244
			c0.224,0.051,0.385,0.076,0.482,0.076c0.208,0,0.36-0.104,0.457-0.311h0.102L234.007,10.743L234.007,10.743z"/>
		<path fill="#246AB4" d="M238.583,8.801v0.108c-0.279,0-0.516,0.078-0.711,0.235c-0.195,0.157-0.292,0.417-0.292,0.781v7.097
			c0,0.36,0.104,0.621,0.311,0.784c0.208,0.163,0.438,0.244,0.692,0.244v0.102h-2.964V18.05c0.271,0,0.505-0.079,0.701-0.238
			c0.197-0.158,0.295-0.422,0.295-0.79V9.925c0-0.389-0.098-0.656-0.295-0.8c-0.196-0.144-0.43-0.216-0.701-0.216V8.801H238.583z"/>
		<path fill="#246AB4" d="M249.209,8.801v0.108c-0.237,0.03-0.424,0.075-0.562,0.137c-0.137,0.061-0.244,0.182-0.32,0.361
			c-0.076,0.18-0.114,0.439-0.114,0.778v8.202h-0.063l-7.179-8.012v5.751c0,0.478,0.019,0.833,0.057,1.066
			c0.038,0.233,0.093,0.4,0.165,0.501c0.157,0.22,0.43,0.338,0.819,0.355v0.102h-2.342v-0.102c0.262-0.013,0.467-0.069,0.612-0.168
			c0.146-0.1,0.25-0.282,0.312-0.546c0.061-0.265,0.092-0.664,0.092-1.197v-6.1l-0.311-0.349c-0.275-0.313-0.495-0.511-0.66-0.593
			c-0.165-0.083-0.37-0.145-0.616-0.188V8.801h1.758l7.071,7.922v-6.037c0-0.453-0.018-0.792-0.054-1.016
			c-0.036-0.224-0.131-0.404-0.285-0.54c-0.155-0.135-0.397-0.209-0.727-0.222V8.801H249.209z"/>
		<path fill="#246AB4" d="M258.648,10.743h-0.103c-0.136-0.609-0.495-1.083-1.079-1.418c-0.584-0.337-1.25-0.505-2-0.505
			c-0.39,0-0.808,0.061-1.254,0.181c-0.446,0.121-0.882,0.34-1.305,0.657s-0.773,0.777-1.054,1.381
			c-0.279,0.603-0.419,1.361-0.419,2.275c0,1.456,0.339,2.62,1.019,3.491c0.68,0.872,1.771,1.308,3.272,1.308
			c0.592,0,1.028-0.04,1.309-0.121c0.279-0.081,0.457-0.19,0.537-0.33c0.078-0.14,0.117-0.328,0.117-0.565v-1.714
			c0-0.406-0.089-0.675-0.265-0.806c-0.175-0.131-0.439-0.218-0.79-0.26v-0.108h3.041v0.108c-0.279,0.03-0.495,0.09-0.646,0.181
			c-0.152,0.091-0.254,0.208-0.306,0.353c-0.051,0.145-0.075,0.334-0.075,0.571v2.603c-0.932,0.25-1.893,0.375-2.883,0.375
			c-0.512,0-1.019-0.042-1.517-0.127c-0.499-0.086-1.021-0.273-1.562-0.565s-1.02-0.724-1.435-1.295
			c-0.622-0.859-0.933-1.83-0.933-2.914c0-0.63,0.118-1.244,0.352-1.841c0.235-0.597,0.573-1.131,1.016-1.603
			s0.983-0.844,1.622-1.117c0.639-0.272,1.348-0.409,2.126-0.409c0.3,0,0.595,0.02,0.882,0.061c0.288,0.04,0.717,0.122,1.289,0.244
			c0.225,0.051,0.385,0.076,0.482,0.076c0.208,0,0.359-0.104,0.457-0.311h0.102L258.648,10.743L258.648,10.743z"/>
		<path fill="#246AB4" d="M264.609,8.909V8.801h3.064c0.514,0,0.963,0.07,1.355,0.209c0.391,0.139,0.717,0.33,0.977,0.571
			c0.262,0.241,0.455,0.513,0.584,0.815c0.129,0.303,0.195,0.621,0.195,0.956c0,0.326-0.062,0.64-0.182,0.943
			c-0.121,0.302-0.311,0.571-0.568,0.806c-0.258,0.235-0.596,0.422-1.016,0.562s-0.9,0.209-1.447,0.209
			c-0.174,0-0.508-0.025-1.002-0.076v3.225c0,0.665,0.338,1.007,1.016,1.028v0.102h-2.979v-0.102
			c0.293-0.008,0.531-0.092,0.721-0.251c0.188-0.158,0.283-0.417,0.283-0.777V9.95c0-0.216-0.035-0.396-0.104-0.54
			c-0.066-0.144-0.146-0.247-0.236-0.308c-0.092-0.061-0.193-0.106-0.307-0.136c-0.111-0.03-0.188-0.049-0.23-0.057H264.609z
			 M266.57,9.131v4.405c0.326,0.059,0.646,0.089,0.965,0.089c0.604,0,1.119-0.156,1.539-0.466c0.422-0.312,0.631-0.888,0.631-1.73
			c0-0.694-0.184-1.264-0.555-1.71c-0.369-0.447-0.934-0.67-1.686-0.67C267.174,9.049,266.875,9.076,266.57,9.131z"/>
		<path fill="#246AB4" d="M271.615,8.909V8.801h5.574v1.473h-0.09c0-0.787-0.523-1.181-1.574-1.181h-1.949v4.247h1.715
			c0.338,0,0.641-0.055,0.908-0.165c0.266-0.11,0.418-0.362,0.457-0.755h0.094v2.12h-0.094c-0.039-0.241-0.111-0.426-0.217-0.555
			c-0.105-0.129-0.211-0.215-0.314-0.257c-0.102-0.042-0.195-0.063-0.275-0.063c-0.15-0.025-0.311-0.038-0.477-0.038h-1.797v3.32
			c0,0.25,0.049,0.465,0.145,0.647s0.316,0.273,0.662,0.273h1.393c0.334,0,0.607-0.049,0.822-0.146
			c0.219-0.097,0.389-0.233,0.514-0.406c0.125-0.173,0.229-0.383,0.312-0.628h0.088l-0.322,1.466h-5.572v-0.102h0.127
			c0.199,0,0.393-0.081,0.584-0.241c0.189-0.16,0.285-0.423,0.285-0.787V9.975c0-0.288-0.064-0.538-0.193-0.749
			s-0.354-0.317-0.676-0.317H271.615z"/>
		<path fill="#246AB4" d="M288.342,13.486c0,0.876-0.217,1.69-0.65,2.444s-1.023,1.353-1.773,1.8
			c-0.748,0.446-1.578,0.669-2.488,0.669c-0.914,0-1.752-0.224-2.514-0.669c-0.762-0.447-1.361-1.049-1.799-1.806
			c-0.439-0.757-0.658-1.583-0.658-2.476c0-0.686,0.131-1.33,0.391-1.933c0.262-0.603,0.625-1.128,1.094-1.577
			c0.467-0.449,1-0.795,1.6-1.041c0.598-0.246,1.223-0.368,1.875-0.368c0.639,0,1.252,0.117,1.84,0.353
			c0.59,0.234,1.117,0.574,1.584,1.019c0.469,0.445,0.836,0.971,1.104,1.581C288.211,12.092,288.342,12.758,288.342,13.486z
			 M287.225,13.511c0-1.244-0.221-2.217-0.66-2.92s-0.947-1.173-1.523-1.413c-0.576-0.239-1.117-0.358-1.625-0.358
			c-0.395,0-0.803,0.064-1.225,0.193c-0.424,0.129-0.836,0.365-1.234,0.708c-0.4,0.343-0.73,0.825-0.988,1.447
			c-0.258,0.622-0.387,1.39-0.387,2.304c0,0.804,0.107,1.505,0.32,2.104c0.215,0.599,0.508,1.088,0.883,1.467
			c0.375,0.378,0.787,0.651,1.238,0.818c0.449,0.167,0.918,0.251,1.404,0.251c0.438,0,0.877-0.077,1.324-0.231
			c0.445-0.155,0.854-0.406,1.225-0.756c0.369-0.349,0.672-0.823,0.9-1.422C287.109,15.105,287.225,14.374,287.225,13.511z"/>
		<path fill="#246AB4" d="M289.529,8.909V8.801h3.064c0.514,0,0.963,0.07,1.355,0.209c0.391,0.139,0.717,0.33,0.977,0.571
			c0.262,0.241,0.455,0.513,0.584,0.815c0.129,0.303,0.195,0.621,0.195,0.956c0,0.326-0.061,0.64-0.182,0.943
			c-0.121,0.302-0.311,0.571-0.568,0.806c-0.258,0.235-0.596,0.422-1.016,0.562c-0.418,0.14-0.9,0.209-1.447,0.209
			c-0.174,0-0.508-0.025-1.002-0.076v3.225c0,0.665,0.338,1.007,1.016,1.028v0.102h-2.979v-0.102
			c0.293-0.008,0.533-0.092,0.721-0.251c0.189-0.158,0.283-0.417,0.283-0.777V9.95c0-0.216-0.035-0.396-0.104-0.54
			c-0.066-0.144-0.146-0.247-0.236-0.308c-0.092-0.061-0.193-0.106-0.307-0.136c-0.111-0.03-0.188-0.049-0.23-0.057H289.529z
			 M291.49,9.131v4.405c0.326,0.059,0.646,0.089,0.965,0.089c0.604,0,1.119-0.156,1.539-0.466c0.422-0.312,0.631-0.888,0.631-1.73
			c0-0.694-0.184-1.264-0.555-1.71c-0.369-0.447-0.934-0.67-1.686-0.67C292.092,9.049,291.795,9.076,291.49,9.131z"/>
		<path fill="#246AB4" d="M296.562,18.05h0.127c0.229,0,0.432-0.09,0.605-0.27c0.176-0.18,0.264-0.433,0.264-0.759V9.963
			c0-0.389-0.098-0.66-0.295-0.812c-0.195-0.152-0.432-0.233-0.701-0.241V8.801h2.99v0.108c-0.264,0.008-0.496,0.087-0.699,0.235
			s-0.307,0.421-0.307,0.819v6.824c0,0.406,0.104,0.688,0.307,0.844c0.203,0.156,0.537,0.235,0.998,0.235h0.805
			c0.352,0,0.633-0.042,0.842-0.127c0.209-0.084,0.375-0.214,0.498-0.387c0.123-0.173,0.248-0.419,0.375-0.736h0.107l-0.355,1.536
			h-5.561V18.05L296.562,18.05z"/>
		<path fill="#246AB4" d="M303.037,8.909V8.801h5.574v1.473h-0.09c0-0.787-0.523-1.181-1.574-1.181h-1.949v4.247h1.715
			c0.34,0,0.643-0.055,0.908-0.165c0.268-0.11,0.418-0.362,0.457-0.755h0.094v2.12h-0.094c-0.039-0.241-0.109-0.426-0.217-0.555
			c-0.105-0.129-0.211-0.215-0.314-0.257c-0.102-0.042-0.193-0.063-0.273-0.063c-0.152-0.025-0.312-0.038-0.479-0.038h-1.797v3.32
			c0,0.25,0.049,0.465,0.146,0.647c0.094,0.182,0.314,0.273,0.662,0.273h1.391c0.334,0,0.609-0.049,0.824-0.146
			c0.217-0.097,0.387-0.233,0.512-0.406c0.125-0.173,0.23-0.383,0.314-0.628h0.088l-0.322,1.466h-5.574v-0.102h0.127
			c0.199,0,0.396-0.081,0.584-0.241c0.191-0.16,0.285-0.423,0.285-0.787V9.975c0-0.288-0.062-0.538-0.191-0.749
			c-0.131-0.211-0.354-0.317-0.678-0.317H303.037z"/>
		<path fill="#246AB4" d="M318.271,8.687l2.799,8.011c0.148,0.415,0.289,0.715,0.42,0.901s0.256,0.304,0.377,0.352
			c0.121,0.049,0.273,0.082,0.461,0.099v0.102h-3.053V18.05c0.311,0,0.553-0.03,0.723-0.089c0.17-0.059,0.254-0.22,0.254-0.482
			c0-0.144-0.041-0.336-0.121-0.578c-0.016-0.034-0.023-0.059-0.023-0.076l-0.83-2.482h-3.238l-0.742,2.298
			c-0.102,0.313-0.15,0.565-0.15,0.755c0,0.262,0.062,0.437,0.195,0.524c0.133,0.086,0.316,0.13,0.561,0.13v0.102h-2.197V18.05
			c0.312-0.03,0.564-0.149,0.752-0.358c0.189-0.21,0.355-0.528,0.492-0.956l2.641-8.049H318.271z M316.145,14.006h2.979L317.6,9.569
			h-0.025L316.145,14.006z"/>
		<path fill="#246AB4" d="M332.637,8.801v0.108c-0.236,0.03-0.426,0.075-0.562,0.137c-0.137,0.061-0.244,0.182-0.32,0.361
			c-0.074,0.18-0.111,0.439-0.111,0.778v8.202h-0.064l-7.18-8.012v5.751c0,0.478,0.02,0.833,0.059,1.066
			c0.037,0.233,0.092,0.4,0.164,0.501c0.156,0.22,0.432,0.338,0.818,0.355v0.102h-2.342v-0.102c0.264-0.013,0.467-0.069,0.611-0.168
			c0.146-0.1,0.25-0.282,0.312-0.546c0.061-0.265,0.092-0.664,0.092-1.197v-6.1l-0.311-0.349c-0.275-0.313-0.496-0.511-0.66-0.593
			c-0.166-0.083-0.371-0.145-0.617-0.188V8.801h1.76l7.07,7.922v-6.037c0-0.453-0.02-0.792-0.055-1.016
			c-0.035-0.224-0.133-0.404-0.285-0.54c-0.154-0.136-0.396-0.209-0.729-0.222V8.801H332.637z"/>
		<path fill="#246AB4" d="M333.537,8.909V8.801h3.602c0.504,0,0.969,0.043,1.393,0.13c0.426,0.086,0.807,0.202,1.143,0.346
			c0.34,0.144,0.631,0.302,0.873,0.473c0.246,0.172,0.453,0.346,0.623,0.524c0.295,0.296,0.549,0.625,0.754,0.987
			c0.209,0.362,0.363,0.744,0.469,1.146c0.104,0.402,0.154,0.817,0.154,1.244c0,0.427-0.051,0.833-0.15,1.219
			c-0.102,0.386-0.248,0.742-0.438,1.07c-0.189,0.328-0.418,0.625-0.684,0.892s-0.572,0.508-0.924,0.724
			c-0.301,0.178-0.646,0.322-1.033,0.432c-0.389,0.11-0.916,0.165-1.582,0.165h-4.195v-0.102h0.127c0.293,0,0.512-0.11,0.654-0.33
			c0.145-0.22,0.215-0.453,0.215-0.698v-7.06c0-0.237-0.039-0.436-0.117-0.597s-0.182-0.277-0.312-0.349
			c-0.131-0.072-0.275-0.108-0.438-0.108H333.537z M335.498,9.245v7.408c0,0.364,0.061,0.632,0.176,0.803
			c0.115,0.172,0.299,0.283,0.543,0.333c0.244,0.05,0.605,0.076,1.078,0.076c0.68,0,1.248-0.067,1.717-0.2
			c0.465-0.134,0.914-0.431,1.352-0.892c0.322-0.343,0.58-0.762,0.773-1.257s0.293-1.094,0.293-1.796
			c0-0.554-0.078-1.104-0.234-1.647s-0.396-1.027-0.719-1.45c-0.359-0.478-0.82-0.853-1.389-1.124
			c-0.562-0.271-1.242-0.406-2.041-0.406C336.637,9.093,336.121,9.144,335.498,9.245z"/>
		<path fill="#246AB4" d="M357.691,8.801v0.108c-0.238,0.03-0.426,0.075-0.562,0.137c-0.139,0.061-0.244,0.182-0.318,0.361
			c-0.076,0.18-0.115,0.439-0.115,0.778v8.202h-0.062l-7.18-8.012v5.751c0,0.478,0.021,0.833,0.059,1.066
			c0.037,0.233,0.094,0.4,0.164,0.501c0.156,0.22,0.432,0.338,0.818,0.355v0.102h-2.342v-0.102c0.262-0.013,0.467-0.069,0.611-0.168
			c0.146-0.1,0.25-0.282,0.312-0.546c0.062-0.265,0.092-0.664,0.092-1.197v-6.1l-0.311-0.349c-0.275-0.313-0.496-0.511-0.66-0.593
			c-0.166-0.083-0.371-0.145-0.617-0.188V8.801h1.76l7.07,7.922v-6.037c0-0.453-0.018-0.792-0.055-1.016
			c-0.035-0.224-0.131-0.404-0.285-0.54c-0.154-0.136-0.396-0.209-0.729-0.222V8.801H357.691z"/>
		<path fill="#246AB4" d="M362.838,8.687l2.803,8.011c0.146,0.415,0.285,0.715,0.418,0.901c0.131,0.186,0.258,0.304,0.379,0.352
			c0.119,0.049,0.271,0.082,0.459,0.099v0.102h-3.055V18.05c0.312,0,0.557-0.03,0.725-0.089c0.17-0.059,0.254-0.22,0.254-0.482
			c0-0.144-0.039-0.336-0.119-0.578c-0.018-0.034-0.025-0.059-0.025-0.076l-0.83-2.482h-3.238l-0.742,2.298
			c-0.102,0.313-0.152,0.565-0.152,0.755c0,0.262,0.066,0.437,0.197,0.524c0.131,0.086,0.316,0.13,0.561,0.13v0.102h-2.197V18.05
			c0.312-0.03,0.562-0.149,0.754-0.358c0.188-0.21,0.352-0.528,0.49-0.956l2.641-8.049H362.838z M360.713,14.006h2.979l-1.523-4.437
			h-0.023L360.713,14.006z"/>
		<path fill="#246AB4" d="M374.525,10.623h-0.104c-0.047-0.609-0.225-1.004-0.531-1.184c-0.312-0.18-0.691-0.27-1.145-0.27h-1.859
			v7.852c0,0.665,0.34,1.007,1.016,1.028v0.102h-2.979v-0.102c0.279-0.008,0.518-0.09,0.709-0.244
			c0.191-0.155,0.287-0.416,0.287-0.784V9.169h-1.857c-0.453,0-0.832,0.09-1.141,0.27c-0.307,0.18-0.484,0.574-0.537,1.184h-0.102
			V8.338h0.102c0.068,0.106,0.129,0.184,0.18,0.235c0.051,0.051,0.117,0.094,0.195,0.13c0.08,0.036,0.176,0.061,0.281,0.076
			c0.109,0.015,0.236,0.022,0.385,0.022h6.059c0.4,0,0.715-0.154,0.938-0.463h0.104V10.623L374.525,10.623z"/>
		<path fill="#246AB4" d="M384.445,18.151h-1.961v-1.549l-0.031-0.025c-0.271,0.63-0.676,1.092-1.217,1.384
			c-0.539,0.292-1.104,0.438-1.691,0.438c-0.664,0-1.262-0.159-1.793-0.476c-0.529-0.317-0.922-0.709-1.172-1.174
			c-0.178-0.33-0.289-0.674-0.336-1.032c-0.047-0.357-0.07-0.729-0.07-1.114V9.95c0-0.279-0.055-0.514-0.168-0.705
			c-0.109-0.191-0.379-0.303-0.803-0.336V8.801h2.939v0.108c-0.434,0.051-0.707,0.176-0.826,0.375
			c-0.117,0.199-0.178,0.421-0.178,0.667v4.577c0,0.931,0.096,1.619,0.285,2.063c0.203,0.474,0.51,0.844,0.914,1.111
			c0.406,0.267,0.867,0.4,1.385,0.4c0.217,0,0.473-0.038,0.768-0.114c0.297-0.076,0.574-0.203,0.832-0.381
			c0.775-0.529,1.162-1.377,1.162-2.545v-5.11c0-0.258-0.061-0.487-0.178-0.686c-0.119-0.199-0.398-0.317-0.84-0.355v-0.11h2.99
			v0.108c-0.432,0.021-0.709,0.142-0.832,0.362c-0.123,0.22-0.184,0.442-0.184,0.667v7.084c0,0.246,0.041,0.439,0.123,0.581
			c0.082,0.142,0.197,0.242,0.344,0.301s0.324,0.108,0.535,0.146L384.445,18.151L384.445,18.151z"/>
		<path fill="#246AB4" d="M385.467,8.934h-0.127V8.801h3.238c0.521,0,0.961,0.081,1.322,0.241c0.363,0.161,0.645,0.365,0.846,0.613
			c0.201,0.247,0.344,0.509,0.432,0.784c0.088,0.275,0.131,0.546,0.131,0.812c0,0.338-0.07,0.664-0.215,0.974
			c-0.141,0.312-0.357,0.579-0.65,0.803c-0.295,0.224-0.662,0.376-1.104,0.457v0.025c0.561,0.271,1.074,0.808,1.551,1.612
			l0.844,1.428c0.381,0.639,0.688,1.043,0.918,1.212c0.229,0.169,0.457,0.265,0.682,0.286v0.102h-1.701
			c-0.07-0.093-0.139-0.183-0.201-0.27s-0.133-0.179-0.203-0.276c-0.043-0.063-0.105-0.16-0.189-0.289
			c-0.082-0.129-0.133-0.202-0.146-0.219l-1.117-1.847c-0.227-0.376-0.455-0.682-0.689-0.917c-0.232-0.234-0.453-0.403-0.654-0.504
			c-0.203-0.101-0.389-0.165-0.551-0.19c-0.164-0.025-0.354-0.038-0.572-0.038v3.421c0,0.665,0.338,1.007,1.016,1.028v0.102h-2.98
			v-0.102c0.189-0.008,0.354-0.043,0.496-0.104c0.145-0.062,0.266-0.167,0.357-0.317c0.096-0.15,0.145-0.353,0.145-0.606V9.95
			c0-0.373-0.092-0.635-0.271-0.787C385.885,9.011,385.684,8.934,385.467,8.934z M387.303,13.352h0.531
			c0.561,0,1.02-0.081,1.375-0.241c0.357-0.16,0.615-0.391,0.777-0.688c0.16-0.299,0.24-0.664,0.24-1.095
			c0-0.36-0.072-0.712-0.215-1.057c-0.146-0.345-0.391-0.635-0.734-0.869c-0.344-0.235-0.809-0.353-1.393-0.353
			c-0.236,0-0.434,0.019-0.584,0.057L387.303,13.352L387.303,13.352z"/>
		<path fill="#246AB4" d="M393.879,8.909V8.801h5.572v1.473h-0.088c0-0.787-0.525-1.181-1.574-1.181h-1.949v4.247h1.717
			c0.338,0,0.641-0.055,0.904-0.165c0.268-0.11,0.42-0.362,0.457-0.755h0.098v2.12h-0.098c-0.037-0.241-0.107-0.426-0.215-0.555
			c-0.104-0.129-0.211-0.215-0.312-0.257c-0.105-0.042-0.195-0.063-0.275-0.063c-0.152-0.025-0.312-0.038-0.477-0.038h-1.799v3.32
			c0,0.25,0.049,0.465,0.145,0.647s0.316,0.273,0.664,0.273h1.391c0.334,0,0.609-0.049,0.824-0.146
			c0.217-0.097,0.387-0.233,0.512-0.406c0.125-0.173,0.229-0.383,0.314-0.628h0.088l-0.324,1.466h-5.572v-0.102h0.127
			c0.199,0,0.395-0.081,0.584-0.241c0.189-0.16,0.285-0.423,0.285-0.787V9.975c0-0.288-0.062-0.538-0.191-0.749
			s-0.355-0.317-0.678-0.317H393.879z"/>
		<path fill="#246AB4" d="M412.832,10.623h-0.102c-0.047-0.609-0.227-1.004-0.533-1.184c-0.309-0.18-0.689-0.27-1.143-0.27h-1.859
			v7.852c0,0.665,0.338,1.007,1.016,1.028v0.102h-2.979v-0.102c0.279-0.008,0.516-0.09,0.709-0.244
			c0.189-0.155,0.289-0.416,0.289-0.784V9.169h-1.861c-0.451,0-0.832,0.09-1.139,0.27c-0.309,0.18-0.486,0.574-0.537,1.184h-0.102
			V8.338h0.102c0.068,0.106,0.127,0.184,0.178,0.235c0.051,0.051,0.117,0.094,0.197,0.13s0.176,0.061,0.283,0.076
			c0.105,0.015,0.234,0.022,0.383,0.022h6.057c0.402,0,0.715-0.154,0.939-0.463h0.102V10.623z"/>
		<path fill="#246AB4" d="M423.287,13.486c0,0.876-0.217,1.69-0.648,2.444c-0.436,0.754-1.025,1.353-1.775,1.8
			c-0.748,0.446-1.578,0.669-2.488,0.669c-0.914,0-1.752-0.224-2.514-0.669c-0.762-0.447-1.361-1.049-1.799-1.806
			c-0.438-0.757-0.656-1.583-0.656-2.476c0-0.686,0.129-1.33,0.391-1.933s0.623-1.128,1.094-1.577c0.467-0.449,1-0.795,1.6-1.041
			c0.598-0.246,1.223-0.368,1.875-0.368c0.639,0,1.252,0.117,1.84,0.353c0.59,0.234,1.117,0.574,1.584,1.019
			c0.469,0.445,0.836,0.971,1.104,1.581C423.156,12.092,423.287,12.758,423.287,13.486z M422.17,13.511
			c0-1.244-0.221-2.217-0.658-2.92c-0.439-0.703-0.947-1.173-1.523-1.413c-0.576-0.239-1.117-0.358-1.625-0.358
			c-0.396,0-0.803,0.064-1.225,0.193c-0.426,0.129-0.838,0.365-1.234,0.708c-0.4,0.343-0.73,0.825-0.988,1.447
			c-0.258,0.622-0.387,1.39-0.387,2.304c0,0.804,0.105,1.505,0.32,2.104s0.508,1.088,0.883,1.467
			c0.375,0.378,0.787,0.651,1.236,0.818s0.92,0.251,1.404,0.251c0.439,0,0.879-0.077,1.324-0.231
			c0.447-0.155,0.854-0.406,1.225-0.756c0.371-0.349,0.672-0.823,0.902-1.422C422.055,15.105,422.17,14.374,422.17,13.511z"/>
		<path fill="#246AB4" d="M432.998,10.743h-0.102c-0.135-0.609-0.494-1.083-1.078-1.418c-0.584-0.337-1.25-0.505-2-0.505
			c-0.389,0-0.807,0.061-1.254,0.181c-0.445,0.121-0.881,0.34-1.305,0.657s-0.773,0.777-1.055,1.381
			c-0.277,0.603-0.42,1.361-0.42,2.275c0,1.456,0.34,2.62,1.021,3.491c0.68,0.872,1.77,1.308,3.271,1.308
			c0.592,0,1.029-0.04,1.311-0.121c0.277-0.081,0.457-0.19,0.533-0.33c0.078-0.14,0.117-0.328,0.117-0.565v-1.714
			c0-0.406-0.088-0.675-0.264-0.806s-0.438-0.218-0.789-0.26v-0.108h3.041v0.108c-0.279,0.03-0.496,0.09-0.648,0.181
			c-0.15,0.091-0.254,0.208-0.305,0.353s-0.076,0.334-0.076,0.571v2.603c-0.932,0.25-1.891,0.375-2.881,0.375
			c-0.514,0-1.02-0.042-1.518-0.127c-0.5-0.086-1.021-0.273-1.562-0.565s-1.02-0.724-1.436-1.295
			c-0.621-0.859-0.936-1.83-0.936-2.914c0-0.63,0.119-1.244,0.355-1.841c0.234-0.597,0.572-1.131,1.016-1.603
			s0.982-0.844,1.621-1.117c0.641-0.272,1.35-0.409,2.127-0.409c0.301,0,0.596,0.02,0.883,0.061c0.287,0.04,0.719,0.122,1.287,0.244
			c0.227,0.051,0.389,0.076,0.482,0.076c0.209,0,0.359-0.104,0.457-0.311h0.102v2.144H432.998z"/>
		<path fill="#246AB4" d="M434.586,8.909V8.801h5.574v1.473h-0.09c0-0.787-0.523-1.181-1.574-1.181h-1.949v4.247h1.717
			c0.338,0,0.641-0.055,0.906-0.165c0.268-0.11,0.418-0.362,0.457-0.755h0.096v2.12h-0.096c-0.039-0.241-0.109-0.426-0.217-0.555
			c-0.104-0.129-0.211-0.215-0.312-0.257c-0.104-0.042-0.195-0.063-0.275-0.063c-0.152-0.025-0.311-0.038-0.477-0.038h-1.799v3.32
			c0,0.25,0.051,0.465,0.146,0.647c0.094,0.182,0.314,0.273,0.662,0.273h1.391c0.334,0,0.609-0.049,0.824-0.146
			c0.217-0.097,0.387-0.233,0.512-0.406c0.125-0.173,0.23-0.383,0.314-0.628h0.088l-0.322,1.466h-5.572v-0.102h0.127
			c0.197,0,0.395-0.081,0.584-0.241c0.189-0.16,0.283-0.423,0.283-0.787V9.975c0-0.288-0.062-0.538-0.191-0.749
			s-0.354-0.317-0.676-0.317H434.586z"/>
		<path fill="#246AB4" d="M449.205,10.623h-0.102c-0.047-0.609-0.227-1.004-0.533-1.184c-0.311-0.18-0.689-0.27-1.143-0.27h-1.859
			v7.852c0,0.665,0.338,1.007,1.016,1.028v0.102h-2.979v-0.102c0.277-0.008,0.516-0.09,0.709-0.244
			c0.189-0.155,0.289-0.416,0.289-0.784V9.169h-1.861c-0.451,0-0.832,0.09-1.139,0.27c-0.309,0.18-0.486,0.574-0.537,1.184h-0.104
			V8.338h0.104c0.068,0.106,0.127,0.184,0.178,0.235c0.051,0.051,0.117,0.094,0.197,0.13s0.176,0.061,0.283,0.076
			c0.105,0.015,0.234,0.022,0.383,0.022h6.057c0.402,0,0.715-0.154,0.939-0.463h0.102V10.623z"/>
		<path fill="#246AB4" d="M457.189,13.079V9.95c0-0.305-0.082-0.554-0.248-0.749c-0.164-0.195-0.42-0.292-0.77-0.292V8.801h2.979
			v0.108c-0.346,0-0.602,0.096-0.762,0.289c-0.16,0.192-0.24,0.443-0.24,0.752v7.071c0,0.686,0.334,1.028,1.002,1.028v0.102h-2.979
			v-0.102c0.316,0,0.566-0.086,0.746-0.257c0.182-0.172,0.271-0.424,0.271-0.759v-3.669h-5.357v3.656
			c0,0.326,0.092,0.579,0.275,0.759c0.184,0.18,0.43,0.27,0.74,0.27v0.102h-2.98v-0.102c0.322,0,0.568-0.09,0.74-0.27
			c0.172-0.18,0.258-0.433,0.258-0.759V9.95c0-0.694-0.334-1.041-0.998-1.041V8.801h2.98v0.108c-0.354,0-0.609,0.096-0.771,0.289
			c-0.164,0.192-0.244,0.443-0.244,0.752v3.129H457.189z"/>
		<path fill="#246AB4" d="M460.033,8.909V8.801h5.574v1.473h-0.09c0-0.787-0.523-1.181-1.574-1.181h-1.949v4.247h1.715
			c0.338,0,0.643-0.055,0.908-0.165c0.268-0.11,0.418-0.362,0.457-0.755h0.094v2.12h-0.094c-0.039-0.241-0.111-0.426-0.217-0.555
			c-0.105-0.129-0.211-0.215-0.314-0.257c-0.102-0.042-0.193-0.063-0.273-0.063c-0.152-0.025-0.312-0.038-0.479-0.038h-1.797v3.32
			c0,0.25,0.049,0.465,0.146,0.647c0.094,0.182,0.314,0.273,0.66,0.273h1.393c0.334,0,0.607-0.049,0.824-0.146
			s0.387-0.233,0.512-0.406c0.125-0.173,0.229-0.383,0.312-0.628h0.09l-0.322,1.466h-5.574v-0.102h0.127
			c0.199,0,0.396-0.081,0.584-0.241c0.191-0.16,0.285-0.423,0.285-0.787V9.975c0-0.288-0.064-0.538-0.193-0.749
			s-0.354-0.317-0.676-0.317H460.033z"/>
		<path fill="#246AB4" d="M466.775,8.934h-0.127V8.801h3.236c0.521,0,0.963,0.081,1.322,0.241c0.361,0.161,0.645,0.365,0.846,0.613
			c0.199,0.247,0.346,0.509,0.432,0.784c0.088,0.275,0.131,0.546,0.131,0.812c0,0.338-0.072,0.664-0.213,0.974
			c-0.145,0.312-0.359,0.579-0.654,0.803c-0.293,0.224-0.66,0.376-1.102,0.457v0.025c0.559,0.271,1.076,0.808,1.549,1.612
			l0.844,1.428c0.381,0.639,0.689,1.043,0.918,1.212c0.23,0.169,0.459,0.265,0.684,0.286v0.102h-1.701
			c-0.07-0.093-0.141-0.183-0.203-0.27s-0.131-0.179-0.203-0.276c-0.041-0.063-0.104-0.16-0.186-0.289
			c-0.084-0.129-0.135-0.202-0.15-0.219l-1.117-1.847c-0.225-0.376-0.453-0.682-0.688-0.917c-0.234-0.234-0.453-0.403-0.656-0.504
			s-0.387-0.165-0.549-0.19c-0.164-0.025-0.355-0.038-0.574-0.038v3.421c0,0.665,0.338,1.007,1.016,1.028v0.102h-2.979v-0.102
			c0.188-0.008,0.352-0.043,0.496-0.104c0.143-0.062,0.264-0.167,0.355-0.317c0.098-0.15,0.146-0.353,0.146-0.606V9.95
			c0-0.373-0.092-0.635-0.273-0.787S466.99,8.934,466.775,8.934z M468.609,13.352h0.533c0.559,0,1.018-0.081,1.375-0.241
			c0.355-0.16,0.615-0.391,0.775-0.688c0.16-0.299,0.24-0.664,0.24-1.095c0-0.36-0.072-0.712-0.215-1.057
			c-0.146-0.345-0.389-0.635-0.734-0.869c-0.344-0.235-0.809-0.353-1.393-0.353c-0.236,0-0.432,0.019-0.584,0.057L468.609,13.352
			L468.609,13.352z"/>
	</g>
</g>
<g>
	<g>
		<path fill="#246AB4" d="M292.076,27.572v0.107c-0.178,0.021-0.305,0.039-0.381,0.055s-0.162,0.059-0.254,0.131
			c-0.145,0.107-0.234,0.213-0.271,0.311c-0.035,0.1-0.059,0.27-0.066,0.508c-0.014,0.039-0.014,0.076,0,0.115l0.324,6.943
			c0.008,0.291,0.078,0.543,0.209,0.756c0.131,0.211,0.416,0.318,0.857,0.322v0.104h-3.029V36.82
			c0.398-0.041,0.668-0.156,0.807-0.346s0.199-0.48,0.178-0.879l-0.324-7.186H290.1l-3.301,8.512l-3.123-8.201h-0.023l-0.336,6.627
			c-0.018,0.363,0.004,0.646,0.064,0.848c0.062,0.201,0.16,0.346,0.295,0.434c0.137,0.086,0.336,0.15,0.604,0.191v0.104h-2.355
			V36.82c0.301-0.004,0.529-0.076,0.688-0.217c0.156-0.139,0.258-0.312,0.307-0.521c0.049-0.211,0.086-0.496,0.111-0.859
			l0.375-6.854c0-0.025-0.025-0.07-0.076-0.139c-0.051-0.064-0.113-0.131-0.188-0.195s-0.145-0.117-0.213-0.154
			c-0.143-0.09-0.268-0.141-0.375-0.156c-0.105-0.016-0.254-0.027-0.443-0.041v-0.107h2.172l2.895,7.648l2.939-7.648h1.961V27.572
			L292.076,27.572z"/>
		<path fill="#246AB4" d="M297.523,27.457l2.799,8.012c0.148,0.414,0.287,0.715,0.418,0.9s0.258,0.305,0.379,0.352
			c0.119,0.049,0.273,0.082,0.459,0.1v0.104h-3.053V36.82c0.312,0,0.555-0.029,0.725-0.09c0.168-0.059,0.254-0.219,0.254-0.48
			c0-0.145-0.041-0.336-0.121-0.576c-0.018-0.035-0.023-0.061-0.023-0.076l-0.832-2.48h-3.238l-0.744,2.297
			c-0.102,0.312-0.152,0.564-0.152,0.756c0,0.262,0.066,0.438,0.197,0.523c0.133,0.086,0.318,0.131,0.561,0.131v0.102h-2.197v-0.102
			c0.312-0.029,0.564-0.15,0.752-0.359s0.352-0.527,0.492-0.955l2.641-8.049h0.686V27.457L297.523,27.457z M295.396,32.777h2.977
			l-1.523-4.438h-0.025L295.396,32.777z"/>
		<path fill="#246AB4" d="M309.926,27.572v0.107c-0.264,0.018-0.492,0.049-0.693,0.096s-0.404,0.162-0.607,0.35
			c-0.145,0.141-0.248,0.232-0.301,0.279s-0.111,0.1-0.174,0.158l-3.189,3.148l3.811,4.303c0.297,0.33,0.549,0.537,0.76,0.623
			c0.209,0.084,0.477,0.146,0.803,0.184v0.104h-2.02l-4.184-4.729v3.6c0,0.664,0.334,1.008,1.002,1.027v0.102h-2.963v-0.102
			c0.188-0.01,0.352-0.043,0.494-0.105c0.146-0.061,0.266-0.166,0.359-0.316c0.096-0.148,0.143-0.354,0.143-0.605v-7.096
			c0-0.396-0.098-0.66-0.295-0.799c-0.197-0.137-0.43-0.211-0.701-0.219v-0.105h2.963v0.105c-0.668,0.021-1.002,0.359-1.002,1.018
			v3.451l3.586-3.586c0,0.01,0.01-0.006,0.025-0.037c0.199-0.184,0.297-0.34,0.297-0.471c0-0.146-0.057-0.242-0.174-0.277
			c-0.115-0.039-0.291-0.07-0.523-0.098v-0.105h2.586v-0.004H309.926z"/>
		<path fill="#246AB4" d="M310.865,27.68v-0.107h5.572v1.475h-0.088c0-0.787-0.525-1.182-1.574-1.182h-1.949v4.246h1.715
			c0.338,0,0.643-0.057,0.906-0.166c0.268-0.107,0.42-0.359,0.457-0.756H316v2.121h-0.096c-0.037-0.24-0.109-0.428-0.215-0.557
			c-0.107-0.129-0.211-0.215-0.314-0.256c-0.104-0.043-0.193-0.064-0.273-0.064c-0.152-0.023-0.312-0.037-0.479-0.037h-1.797v3.318
			c0,0.25,0.047,0.467,0.145,0.648c0.096,0.182,0.314,0.271,0.662,0.271h1.393c0.334,0,0.607-0.049,0.824-0.146
			s0.387-0.232,0.512-0.406s0.229-0.383,0.312-0.629h0.09l-0.324,1.467h-5.572v-0.102h0.127c0.199,0,0.395-0.08,0.584-0.242
			c0.189-0.158,0.285-0.422,0.285-0.787v-7.045c0-0.287-0.064-0.537-0.193-0.75c-0.129-0.211-0.354-0.316-0.676-0.316h-0.129V27.68z
			"/>
		<path fill="#246AB4" d="M326.1,27.457l2.801,8.012c0.146,0.414,0.287,0.715,0.418,0.9s0.258,0.305,0.379,0.352
			c0.119,0.049,0.273,0.082,0.459,0.1v0.104h-3.053V36.82c0.312,0,0.555-0.029,0.723-0.09c0.17-0.059,0.254-0.219,0.254-0.48
			c0-0.145-0.039-0.336-0.119-0.576c-0.018-0.035-0.023-0.061-0.023-0.076l-0.832-2.48h-3.238l-0.742,2.297
			c-0.102,0.312-0.15,0.564-0.15,0.756c0,0.262,0.064,0.438,0.195,0.523c0.131,0.088,0.316,0.131,0.561,0.131v0.102h-2.197v-0.102
			c0.312-0.029,0.564-0.15,0.754-0.359c0.188-0.209,0.354-0.527,0.49-0.955l2.641-8.049h0.686v-0.004H326.1z M323.975,32.777h2.977
			l-1.521-4.438h-0.025L323.975,32.777z"/>
		<path fill="#246AB4" d="M343.557,29.666h-0.107c-0.08-0.457-0.295-0.844-0.645-1.162c-0.352-0.316-0.75-0.549-1.203-0.695
			c-0.453-0.145-0.877-0.219-1.271-0.219c-0.537,0-1.043,0.113-1.514,0.34c-0.473,0.229-0.879,0.547-1.223,0.959
			s-0.609,0.908-0.801,1.484c-0.189,0.578-0.287,1.205-0.287,1.883c0,0.656,0.096,1.264,0.277,1.824
			c0.186,0.561,0.453,1.049,0.807,1.461c0.355,0.412,0.764,0.725,1.229,0.936c0.467,0.213,0.982,0.318,1.549,0.318
			c0.477,0,0.996-0.096,1.562-0.289c0.564-0.193,1.078-0.514,1.533-0.961v0.361c-0.561,0.436-1.074,0.756-1.545,0.959
			c-0.467,0.203-1.051,0.305-1.748,0.305c-0.734,0-1.406-0.135-2.016-0.404c-0.609-0.268-1.121-0.631-1.539-1.088
			c-0.42-0.457-0.736-0.971-0.953-1.543c-0.215-0.57-0.324-1.16-0.324-1.764c0-0.91,0.227-1.756,0.676-2.537
			c0.447-0.781,1.057-1.398,1.82-1.854c0.766-0.455,1.6-0.684,2.494-0.684c0.555,0,1.146,0.084,1.771,0.248l0.66,0.184
			c0.127,0.025,0.234,0.039,0.322,0.039c0.166,0,0.275-0.023,0.33-0.072c0.057-0.049,0.1-0.137,0.127-0.264h0.104L343.557,29.666z"
			/>
		<path fill="#246AB4" d="M351.764,31.85v-3.129c0-0.305-0.082-0.555-0.248-0.75c-0.164-0.193-0.42-0.291-0.77-0.291v-0.107h2.979
			v0.107c-0.348,0-0.602,0.098-0.764,0.289c-0.16,0.191-0.238,0.443-0.238,0.752v7.07c0,0.686,0.334,1.029,1.002,1.029v0.102h-2.979
			V36.82c0.316,0,0.566-0.086,0.746-0.26c0.18-0.172,0.271-0.424,0.271-0.758v-3.67h-5.357v3.656c0,0.326,0.092,0.578,0.275,0.76
			c0.184,0.18,0.43,0.271,0.738,0.271v0.102h-2.979V36.82c0.322,0,0.568-0.092,0.74-0.271c0.172-0.182,0.258-0.434,0.258-0.76v-7.07
			c0-0.691-0.334-1.041-0.998-1.041v-0.105h2.979v0.105c-0.352,0-0.607,0.098-0.771,0.289c-0.164,0.193-0.244,0.443-0.244,0.752
			v3.131H351.764L351.764,31.85z"/>
		<path fill="#246AB4" d="M358.879,27.457l2.801,8.012c0.146,0.414,0.287,0.715,0.42,0.9c0.131,0.186,0.256,0.305,0.377,0.352
			c0.121,0.049,0.271,0.082,0.461,0.1v0.104h-3.055V36.82c0.312,0,0.555-0.029,0.725-0.09c0.17-0.059,0.254-0.219,0.254-0.48
			c0-0.145-0.041-0.336-0.121-0.576c-0.016-0.035-0.025-0.061-0.025-0.076l-0.83-2.48h-3.236l-0.742,2.297
			c-0.104,0.312-0.152,0.564-0.152,0.756c0,0.262,0.064,0.438,0.197,0.523c0.131,0.088,0.316,0.131,0.559,0.131v0.102h-2.195v-0.102
			c0.311-0.029,0.562-0.15,0.752-0.359c0.188-0.209,0.354-0.527,0.492-0.955l2.641-8.049h0.682v-0.004H358.879z M356.752,32.777
			h2.98l-1.523-4.438h-0.023L356.752,32.777z"/>
		<path fill="#246AB4" d="M373.244,27.572v0.107c-0.238,0.029-0.426,0.074-0.562,0.137c-0.139,0.062-0.244,0.182-0.32,0.361
			c-0.076,0.182-0.113,0.439-0.113,0.777v8.201h-0.062l-7.182-8.012v5.75c0,0.48,0.021,0.834,0.061,1.066
			c0.037,0.232,0.092,0.398,0.164,0.502c0.154,0.221,0.43,0.338,0.816,0.354v0.104h-2.342v-0.104
			c0.264-0.014,0.467-0.068,0.613-0.168c0.145-0.1,0.25-0.281,0.311-0.547c0.062-0.264,0.094-0.662,0.094-1.195v-6.098l-0.312-0.348
			c-0.275-0.314-0.496-0.512-0.66-0.594c-0.166-0.084-0.371-0.146-0.615-0.189v-0.105h1.76l7.068,7.922v-6.037
			c0-0.451-0.018-0.791-0.053-1.018c-0.037-0.223-0.131-0.402-0.285-0.537c-0.154-0.137-0.396-0.211-0.729-0.225v-0.105H373.244
			L373.244,27.572z"/>
		<path fill="#246AB4" d="M382.682,29.514h-0.104c-0.135-0.607-0.494-1.082-1.078-1.418c-0.584-0.338-1.25-0.506-2-0.506
			c-0.389,0-0.807,0.062-1.254,0.182c-0.445,0.121-0.881,0.34-1.305,0.656c-0.422,0.318-0.773,0.777-1.053,1.381
			s-0.42,1.361-0.42,2.275c0,1.457,0.34,2.621,1.02,3.492s1.77,1.307,3.271,1.307c0.594,0,1.029-0.039,1.311-0.119
			c0.279-0.082,0.457-0.189,0.535-0.33s0.117-0.328,0.117-0.564v-1.715c0-0.406-0.09-0.676-0.266-0.807s-0.438-0.217-0.789-0.26
			V32.98h3.041v0.107c-0.277,0.029-0.496,0.09-0.646,0.18c-0.152,0.094-0.254,0.209-0.307,0.354
			c-0.051,0.146-0.074,0.336-0.074,0.572v2.604c-0.934,0.25-1.893,0.375-2.883,0.375c-0.514,0-1.02-0.043-1.518-0.127
			c-0.5-0.086-1.021-0.273-1.562-0.566c-0.543-0.291-1.02-0.723-1.436-1.295c-0.621-0.855-0.934-1.83-0.934-2.912
			c0-0.631,0.117-1.242,0.354-1.842c0.236-0.598,0.572-1.131,1.016-1.604s0.982-0.846,1.621-1.117
			c0.641-0.271,1.35-0.408,2.127-0.408c0.303,0,0.596,0.021,0.885,0.062c0.287,0.039,0.717,0.121,1.287,0.242
			c0.225,0.053,0.387,0.076,0.48,0.076c0.209,0,0.361-0.104,0.457-0.312h0.104v2.146h0.002V29.514z"/>
		<path fill="#246AB4" d="M384.27,27.68v-0.107h5.572v1.475h-0.09c0-0.787-0.521-1.182-1.572-1.182h-1.949v4.246h1.715
			c0.338,0,0.641-0.057,0.908-0.166c0.266-0.107,0.418-0.359,0.457-0.756h0.094v2.121h-0.094c-0.039-0.24-0.111-0.428-0.217-0.557
			s-0.213-0.215-0.314-0.256c-0.104-0.043-0.195-0.064-0.275-0.064c-0.15-0.023-0.311-0.037-0.477-0.037h-1.797v3.318
			c0,0.25,0.049,0.467,0.145,0.648c0.094,0.182,0.316,0.271,0.662,0.271h1.391c0.334,0,0.609-0.049,0.824-0.146
			c0.217-0.098,0.389-0.232,0.514-0.406s0.229-0.383,0.312-0.629h0.088l-0.322,1.467h-5.572v-0.102h0.127
			c0.199,0,0.395-0.08,0.584-0.242c0.189-0.158,0.285-0.422,0.285-0.787v-7.045c0-0.287-0.064-0.537-0.193-0.75
			c-0.129-0.211-0.354-0.316-0.676-0.316h-0.129V27.68z"/>
	</g>
</g>
<line fill="none" stroke="#A5CF59" stroke-width="2" stroke-miterlimit="10" x1="194.494" y1="23.986" x2="473.357" y2="23.986"/>
</svg>
