<?xml version="1.0" ?><!DOCTYPE svg  PUBLIC '-//W3C//DTD SVG 1.1//EN'  'http://www.w3.org/Graphics/SVG/1.1/DTD/svg11.dtd'><svg height="512px" id="Слой_1" style="enable-background:new 0 0 512 512;" version="1.1" viewBox="0 0 512 512" width="512px" xml:space="preserve" xmlns="http://www.w3.org/2000/svg" xmlns:xlink="http://www.w3.org/1999/xlink"><path d="M255.827,6.434c123.557,0,223.715,94.611,223.715,211.333  c0,69.964-35.944,131.964-91.372,170.427l-2.406-8.427c34.393-35.199,55.794-84.381,55.794-138.846  c0-106.98-82.491-193.691-184.249-193.691c-101.777,0-184.268,86.711-184.268,193.691c0,57.067,23.473,108.363,60.827,143.819  l-2.493,8.657c-59.845-37.935-99.251-102.414-99.251-175.63C32.126,101.046,132.29,6.434,255.827,6.434L255.827,6.434z   M325.739,237.602c0,0,41.567-16.556,52.168-34.481c10.582-17.951,7.757-42.204,7.757-42.204s-21.617,1.45-47.217,20.648  C312.86,200.804,325.739,237.602,325.739,237.602L325.739,237.602z M327.588,300.061c0,0,52.236-5.677,69.856-22.693  c17.593-17.031,21.976-45.348,21.976-45.348s-24.937-5.149-59.913,8.617C324.512,254.403,327.588,300.061,327.588,300.061  L327.588,300.061z M214.971,326.333c0,0-20.973-72.717-49.425-93.472c-28.466-20.811-69.735-20.039-69.735-20.039  s-1.131,36.609,26.982,82.864C150.913,341.927,214.971,326.333,214.971,326.333L214.971,326.333z M306.275,241.87  c0,0,4.133-36.975-4.918-51.756c-9.036-14.795-27.91-22.193-27.91-22.193s-7.411,16.435-3.306,42.719  C274.253,236.924,306.275,241.87,306.275,241.87L306.275,241.87z M225.215,247.52c0,0,8.149-73.108-9.702-102.374  c-17.897-29.238-55.291-43.898-55.291-43.898s-14.612,32.531-6.497,84.53C161.84,237.792,225.215,247.52,225.215,247.52  L225.215,247.52z M317.033,252.519l-10.446-1.26c-3.022,19.876-19.083,56.675-35.321,86.563  c-10.507-28.384-22.803-53.328-33.676-71.957l-18.555,3.441c17.695,52.271,18.515,183.882,6.911,237.129h65.4  c8.495-40.836,3.948-84.665-6.429-125.095C314.466,339.678,319.038,283.302,317.033,252.519z" style="fill-rule:evenodd;clip-rule:evenodd;fill:#202020;"/></svg>